<svg width="21" height="21" viewBox="0 0 21 21" fill="none" xmlns="http://www.w3.org/2000/svg">
<path d="M9.43337 0.939169C9.02003 1.05858 8.44135 1.674 8.32194 2.09652C8.25764 2.30779 8.2209 3.71315 8.2209 5.77067V9.09577L4.70291 9.12333L1.18491 9.15088L0.808312 9.39889C0.229634 9.77549 0 10.2256 0 10.9512C0 11.4472 0.0459268 11.6126 0.248005 11.9249C0.385785 12.1269 0.652161 12.3933 0.845053 12.5127L1.1941 12.7332L4.70291 12.7607L8.21171 12.7883L8.23927 16.2971L8.26683 19.8059L8.48728 20.1549C8.60669 20.3478 8.87306 20.6142 9.07514 20.752C9.38744 20.9633 9.55278 21 10.058 21C10.5632 21 10.7285 20.9633 11.0408 20.752C11.2429 20.6142 11.5093 20.3478 11.6287 20.1549L11.8491 19.8059L11.8767 16.2971L11.9042 12.7883L15.4222 12.7607L18.931 12.7332L19.3076 12.4852C19.8863 12.1086 20.1159 11.6585 20.1159 10.9328C20.1159 10.4368 20.07 10.2715 19.8679 9.95919C19.7302 9.75712 19.4638 9.49074 19.2709 9.37133L18.9218 9.15088L15.413 9.12333L11.9042 9.09577L11.8767 5.58696L11.8491 2.07815L11.6287 1.72911C11.197 1.03102 10.2417 0.691164 9.43337 0.939169Z" fill="white"/>
</svg>
