<svg width="60" height="60" viewBox="0 0 60 60" fill="none" xmlns="http://www.w3.org/2000/svg">
<g clip-path="url(#clip0_251_2427)">
<path d="M27.7734 0.0704193C27.5508 0.0938568 26.8594 0.175888 26.25 0.246201C16.9805 1.30089 8.41406 7.11339 3.70312 15.5392C1.99219 18.6095 0.75 22.4298 0.222656 26.2501C0.0117188 27.715 0.0117188 32.2853 0.222656 33.7501C1.45312 42.6798 6.21094 50.2618 13.6523 55.1485C22.7461 61.1251 34.6641 61.5939 44.2969 56.3673C45.7617 55.5704 46.1016 55.3009 46.3945 54.6915C46.8984 53.6485 46.5703 52.4298 45.5977 51.7384C45.1758 51.4454 44.9883 51.3868 44.3789 51.3868C43.9336 51.3868 43.5234 51.4571 43.3008 51.5743C41.332 52.6407 40.5352 53.0275 39.4336 53.4728C35.6484 54.9962 31.582 55.5821 27.5859 55.1837C17.5781 54.1993 9.09375 47.4025 5.98828 37.8985C4.25391 32.6017 4.25391 27.3985 5.98828 22.1017C8.49609 14.4493 14.4609 8.48448 22.1367 5.97667C27.3984 4.25401 32.6133 4.25401 37.8984 5.98839C43.6172 7.86339 48.3633 11.6251 51.6211 16.8751C53.5195 19.9454 54.8203 23.8478 55.1953 27.6446C55.7227 33.0353 54.375 38.6603 51.375 43.4767C50.7188 44.5314 50.6836 44.6251 50.6836 45.3517C50.6836 46.2657 50.9883 46.84 51.7148 47.3204C52.3711 47.754 53.5078 47.7775 54.1758 47.3556C54.8789 46.922 56.3086 44.6017 57.4102 42.0939C62.9062 29.672 59.3906 15.1759 48.8086 6.64464C44.543 3.21104 39.8086 1.14854 34.2188 0.293076C33.0469 0.117294 28.6875 -0.0350494 27.7734 0.0704193Z" fill="currentColor"/>
<path d="M29.2031 17.2383C28.6758 17.3906 27.9375 18.1758 27.7852 18.7148C27.7031 18.9844 27.6562 20.7773 27.6562 23.4023V27.6445L23.168 27.6797L18.6797 27.7148L18.1992 28.0312C17.4609 28.5117 17.168 29.0859 17.168 30.0117C17.168 30.6445 17.2266 30.8555 17.4844 31.2539C17.6602 31.5117 18 31.8516 18.2461 32.0039L18.6914 32.2852L23.168 32.3203L27.6445 32.3555L27.6797 36.832L27.7148 41.3086L27.9961 41.7539C28.1484 42 28.4883 42.3398 28.7461 42.5156C29.1445 42.7852 29.3555 42.832 30 42.832C30.6445 42.832 30.8555 42.7852 31.2539 42.5156C31.5117 42.3398 31.8516 42 32.0039 41.7539L32.2852 41.3086L32.3203 36.832L32.3555 32.3555L36.8438 32.3203L41.3203 32.2852L41.8008 31.9688C42.5391 31.4883 42.832 30.9141 42.832 29.9883C42.832 29.3555 42.7734 29.1445 42.5156 28.7461C42.3398 28.4883 42 28.1484 41.7539 27.9961L41.3086 27.7148L36.832 27.6797L32.3555 27.6445L32.3203 23.168L32.2852 18.6914L32.0039 18.2461C31.4531 17.3555 30.2344 16.9219 29.2031 17.2383Z" fill="currentColor"/>
</g>
<defs>
<clipPath id="clip0_251_2427">
<rect width="60" height="60" fill="currentColor"/>
</clipPath>
</defs>
</svg>
