<svg width="40" height="40" viewBox="0 0 40 40" fill="none" xmlns="http://www.w3.org/2000/svg">
<path d="M7.15065 14.834C7.24147 14.6221 8.83991 12.9934 14.3981 7.42914C18.588 3.23324 21.6214 0.242222 21.7546 0.175621C22.4872 -0.205825 23.4438 0.109019 23.8192 0.853746C24.019 1.26546 24.0372 1.8346 23.8495 2.24027C23.7587 2.45218 22.2813 3.9598 17.2378 9.00941L10.7471 15.5L17.2378 21.9967C22.2813 27.0403 23.7587 28.5479 23.8495 28.7598C24.0372 29.1655 24.019 29.7346 23.8192 30.1463C23.4438 30.8911 22.4872 31.2059 21.7546 30.8244C21.6214 30.7578 18.588 27.7668 14.3981 23.5709C8.83991 18.0067 7.24147 16.378 7.15065 16.166C7.06589 15.9844 7.0235 15.7664 7.0235 15.5C7.0235 15.2336 7.06589 15.0157 7.15065 14.834Z" fill="currentColor"/>
</svg>
