<svg width="17" height="31" viewBox="0 0 17 31" fill="none" xmlns="http://www.w3.org/2000/svg">
    <path
        d="M16.8493 16.1662C16.7585 16.3781 15.1601 18.0069 9.60189 23.5711C5.41204 27.767 2.37864 30.758 2.24544 30.8246C1.51282 31.2061 0.556182 30.8912 0.180791 30.1465C-0.0190132 29.7348 -0.0371773 29.1656 0.150518 28.76C0.241338 28.5481 1.71868 27.0404 6.76224 21.9908L13.2529 15.5002L6.76224 9.00353C1.71868 3.95998 0.241338 2.45236 0.150518 2.24044C-0.0371773 1.83478 -0.0190132 1.26564 0.180791 0.853922C0.556182 0.109194 1.51282 -0.205648 2.24544 0.175797C2.37864 0.242397 5.41204 3.23341 9.60189 7.42931C15.1601 12.9936 16.7585 14.6223 16.8493 14.8342C16.9341 15.0158 16.9765 15.2338 16.9765 15.5002C16.9765 15.7666 16.9341 15.9846 16.8493 16.1662Z"
        fill="currentColor" />
</svg>