<svg width="23" height="23" viewBox="0 0 23 23" fill="none" xmlns="http://www.w3.org/2000/svg">
    <path
        d="M10.6364 0.013319C10.5509 0.0223122 10.2855 0.0537834 10.0516 0.080761C6.49337 0.485413 3.20508 2.7155 1.39674 5.94823C0.739979 7.12622 0.263154 8.59196 0.0607278 10.0577C-0.0202426 10.6197 -0.0202426 12.3732 0.0607278 12.9352C0.533055 16.3613 2.35939 19.2703 5.21584 21.1452C8.70656 23.4382 13.2814 23.6181 16.979 21.6128C17.5413 21.3071 17.6718 21.2036 17.7842 20.9698C17.9777 20.5697 17.8517 20.1021 17.4784 19.8368C17.3164 19.7244 17.2444 19.7019 17.0105 19.7019C16.8396 19.7019 16.6821 19.7289 16.5967 19.7739C15.841 20.183 15.5351 20.3314 15.1122 20.5022C13.6592 21.0867 12.0983 21.3116 10.5644 21.1587C6.72279 20.781 3.46598 18.1732 2.27392 14.5269C1.60816 12.4946 1.60816 10.4983 2.27392 8.46607C3.23656 5.53009 5.52623 3.24155 8.47265 2.27938C10.4924 1.61844 12.4942 1.61844 14.5229 2.28387C16.7181 3.00325 18.54 4.44652 19.7905 6.46079C20.5192 7.63878 21.0186 9.13599 21.1625 10.5927C21.3649 12.661 20.8476 14.8191 19.696 16.667C19.4441 17.0717 19.4306 17.1077 19.4306 17.3864C19.4306 17.7371 19.5476 17.9574 19.8265 18.1418C20.0784 18.3081 20.5147 18.3171 20.7711 18.1553C21.041 17.9889 21.5898 17.0987 22.0127 16.1365C24.1224 11.3706 22.7729 5.80885 18.7109 2.53566C17.0735 1.21829 15.2562 0.426964 13.1104 0.0987453C12.6606 0.0313034 10.9872 -0.0271454 10.6364 0.013319Z"
        fill="currentColor" />
    <path
        d="M7.20744 5.90443C7.15934 5.93037 7.09439 5.98933 7.06312 6.03885L7.0078 6.12846L7.00058 10.9251C6.99818 14.1063 7.00299 15.75 7.01982 15.8089C7.0535 15.9292 7.13047 16.0188 7.24593 16.0707C7.33974 16.1108 7.44076 16.1155 8.96818 16.1155H10.5918L11.0584 15.658L11.5227 15.2029L11.4625 15.0142C11.3591 14.7006 11.323 14.4553 11.323 14.0992C11.323 13.2833 11.6069 12.5947 12.1842 12.0098C12.5498 11.6396 12.9539 11.3896 13.4253 11.2363C13.7621 11.1279 14.0122 11.0901 14.3923 11.0901C14.9143 11.0901 15.316 11.1821 15.7634 11.4085C15.8956 11.4745 16.0111 11.5311 16.0231 11.5358C16.0328 11.5406 16.0376 10.3261 16.0352 8.83569L16.0279 6.12846L15.9702 6.03885C15.9414 5.98933 15.874 5.93037 15.8211 5.90443C15.7297 5.85727 15.6599 5.85727 11.5131 5.85727C7.39506 5.85963 7.29404 5.85963 7.20744 5.90443ZM14.5967 7.46085V7.86175H11.5179H8.43899V7.46085V7.05996H11.5179H14.5967V7.46085ZM14.5967 9.06443V9.46533H11.5179H8.43899V9.06443V8.66354H11.5179H14.5967V9.06443Z"
        fill="currentColor" />
    <path
        d="M13.9472 11.9299C13.0909 12.1091 12.4318 12.7246 12.2009 13.557C12.1648 13.6891 12.1552 13.7999 12.1576 14.1112C12.1576 14.4649 12.1648 14.5192 12.225 14.7125C12.261 14.8281 12.3428 15.0191 12.4078 15.137L12.5232 15.3493L11.9796 15.8869L11.4336 16.4222L11.7295 16.7099L12.0229 17L12.5689 16.4647L13.1174 15.9317L13.3338 16.0449C13.4541 16.1086 13.6489 16.1888 13.7668 16.2241C13.9665 16.2855 14.0146 16.2902 14.3922 16.2902C14.7674 16.2902 14.818 16.2855 15.0128 16.2265C15.7777 15.9954 16.3261 15.4577 16.5618 14.7078C16.622 14.5168 16.6268 14.4673 16.6268 14.0994C16.6268 13.7315 16.622 13.682 16.5618 13.491C16.3189 12.7199 15.7296 12.1586 14.9454 11.9511C14.7458 11.8992 14.1541 11.885 13.9472 11.9299ZM14.729 12.7316C15.3736 12.892 15.8234 13.4556 15.8234 14.0994C15.8234 14.8705 15.1788 15.5025 14.3922 15.5025C13.6056 15.5025 12.961 14.8753 12.961 14.1065C12.961 13.8589 12.9971 13.7103 13.1101 13.4768C13.2833 13.1231 13.6586 12.8236 14.0482 12.7316C14.2238 12.6892 14.5582 12.6892 14.729 12.7316Z"
        fill="currentColor" />
</svg>