<svg width="20" height="20" viewBox="0 0 20 20" fill="none" xmlns="http://www.w3.org/2000/svg">
    <path
        d="M3.5332 0.435155C3.21953 0.576952 3.125 0.791796 3.125 1.34609V1.75H2.66094C2.12813 1.75 1.81016 1.81875 1.44492 2.01211C1.14414 2.17539 0.770313 2.55352 0.615625 2.85859C0.400781 3.28398 0.375 3.47734 0.375 4.72344V5.875H10H19.625V4.72344C19.625 3.45156 19.5992 3.2668 19.3629 2.81992C19.2898 2.68242 19.118 2.46328 18.9848 2.33867C18.5379 1.91328 18.0824 1.75 17.3434 1.75H16.8836L16.8664 1.28164C16.8578 0.886327 16.8406 0.791796 16.7633 0.692968C16.5957 0.465234 16.4582 0.396484 16.1875 0.396484C15.9168 0.396484 15.7793 0.465234 15.6117 0.692968C15.5344 0.791796 15.5172 0.886327 15.5086 1.28164L15.4914 1.75H14.125H12.7586L12.7414 1.28164C12.7285 0.774609 12.6898 0.675781 12.432 0.486718C12.2645 0.362109 11.8605 0.362109 11.693 0.486718C11.4352 0.675781 11.3965 0.774609 11.3836 1.28164L11.3664 1.75H10H8.63359L8.61641 1.28164C8.60352 0.774609 8.56484 0.675781 8.30703 0.486718C8.13945 0.362109 7.73555 0.362109 7.56797 0.486718C7.31016 0.675781 7.27148 0.774609 7.25859 1.28164L7.24141 1.75H5.875H4.50859L4.49141 1.28164C4.47852 0.774609 4.43984 0.675781 4.19063 0.491015C4.04453 0.383593 3.70508 0.353515 3.5332 0.435155Z"
        fill="currentColor" />
    <path
        d="M0.375095 12.5264C0.375095 18.3314 0.362204 18.0349 0.637204 18.5549C0.800485 18.8557 1.17861 19.2295 1.48369 19.3842C1.98642 19.6377 1.49228 19.6248 10.0001 19.6248C18.5895 19.6248 18.0267 19.642 18.5552 19.3627C19.0493 19.0963 19.4747 18.5162 19.5821 17.9533C19.6079 17.8029 19.6251 15.8693 19.6251 12.4877V7.24979H10.0001H0.375095V12.5264Z"
        fill="currentColor" />
</svg>