<svg width="60" height="60" viewBox="0 0 60 60" fill="none" xmlns="http://www.w3.org/2000/svg">
<path d="M28.8328 16.1266C28.6852 16.1951 28.3636 16.4271 28.1264 16.6381C26.0701 18.4732 24.0614 19.3117 21.0878 19.5859C20.6502 19.6281 20.2759 19.6914 20.0492 19.7705C19.1318 20.0869 18.4411 20.8516 18.188 21.8271C18.072 22.2701 18.0193 26.1039 18.1037 27.5488C18.2935 30.6654 18.7047 32.6799 19.5641 34.7049C20.5289 36.983 22.1317 38.9658 24.1985 40.4477C25.796 41.592 28.6958 42.9473 29.5499 42.9473C30.0244 42.9473 31.2897 42.4674 32.6869 41.7607C34.1579 41.0172 35.1702 40.3264 36.2826 39.3139C38.1227 37.6422 39.504 35.3324 40.2211 32.7326C40.8537 30.4387 41.0805 28.0498 41.0277 24.2529C41.0014 22.5865 40.9803 22.075 40.9117 21.8271C40.6587 20.8516 39.968 20.0869 39.0506 19.7705C38.8239 19.6914 38.4496 19.6281 38.012 19.5859C35.0489 19.317 33.0876 18.4996 31.0261 16.6803C30.3829 16.116 30.1351 16 29.5499 16C29.1861 16 29.049 16.0264 28.8328 16.1266ZM30.7098 24.0367C31.2739 24.2371 31.6272 24.4639 32.0806 24.9121C33.0876 25.9088 33.3987 27.3801 32.882 28.709C32.7027 29.1783 32.3495 29.7004 31.9804 30.0432L31.6694 30.3279L31.6483 31.8256C31.6219 33.5184 31.5955 33.666 31.179 34.1934C30.7467 34.7418 30.1404 35.0107 29.4181 34.9738C28.5323 34.9264 27.8047 34.3621 27.5464 33.5289C27.4515 33.2125 27.441 33.0385 27.441 31.757V30.3385L27.1246 30.0484C25.448 28.4928 25.6325 25.8033 27.5042 24.4902C27.8786 24.2266 28.3952 23.9998 28.817 23.9102C28.9436 23.8838 29.3337 23.868 29.6817 23.8785C30.2036 23.8943 30.3829 23.9207 30.7098 24.0367Z" fill="white"/>
<path d="M28.9646 25.5132C28.3582 25.7453 27.9048 26.1724 27.6992 26.6945C27.5199 27.148 27.5252 27.7914 27.715 28.1921C27.9101 28.614 28.0999 28.846 28.4373 29.0781C28.6008 29.1888 28.7906 29.3417 28.8644 29.4208L28.9962 29.5632L29.0226 31.3562L29.0489 33.1492L29.1965 33.2757C29.5023 33.5394 29.9663 33.3759 30.0454 32.9751C30.0612 32.8802 30.077 32.1156 30.077 31.2718C30.077 29.463 30.0612 29.521 30.6412 29.0781C31.084 28.7458 31.1842 28.6193 31.3846 28.1974C31.5006 27.939 31.5216 27.823 31.5216 27.4433C31.5164 26.8527 31.3793 26.4941 30.9944 26.0775C30.599 25.6503 30.2036 25.471 29.6025 25.4552C29.3231 25.4447 29.0858 25.471 28.9646 25.5132Z" fill="white"/>
<path d="M27.7031 0.0346565C27.4805 0.058094 26.7893 0.140125 26.18 0.210438C16.9124 1.26513 8.34785 7.07763 3.6379 15.5034C1.92733 18.5737 0.685402 22.394 0.15817 26.2143C-0.0527233 27.6792 -0.0527233 32.2495 0.15817 33.7143C1.38838 42.644 6.14519 50.2261 13.585 55.1128C22.6769 61.0893 34.5923 61.5581 44.2231 56.3315C45.6876 55.5347 46.0274 55.2651 46.3203 54.6557C46.8241 53.6128 46.496 52.394 45.5236 51.7026C45.1018 51.4097 44.9144 51.3511 44.3051 51.3511C43.8599 51.3511 43.4498 51.4214 43.2272 51.5386C41.2589 52.605 40.4622 52.9917 39.3608 53.437C35.5765 54.9604 31.5109 55.5464 27.5157 55.1479C17.51 54.1636 9.02739 47.3667 5.92258 37.8628C4.18857 32.5659 4.18857 27.3628 5.92258 22.0659C8.42986 14.4136 14.3934 8.44872 22.0676 5.94091C27.3282 4.21825 32.542 4.21825 37.826 5.95263C43.5435 7.82763 48.2886 11.5893 51.5458 16.8393C53.4438 19.9097 54.7443 23.812 55.1192 27.6089C55.6465 32.9995 54.2991 38.6245 51.2997 43.4409C50.6436 44.4956 50.6085 44.5893 50.6085 45.3159C50.6085 46.23 50.9131 46.8042 51.6395 47.2847C52.2956 47.7182 53.4321 47.7417 54.0999 47.3198C54.8029 46.8862 56.2323 44.5659 57.3336 42.0581C62.8285 29.6362 59.3137 15.1401 48.7339 6.60888C44.4691 3.17528 39.7358 1.11278 34.1471 0.257313C32.9755 0.0815315 28.617 -0.0708122 27.7031 0.0346565Z" fill="white"/>
</svg>
