<svg width="14" height="11" viewBox="0 0 14 11" fill="none" xmlns="http://www.w3.org/2000/svg">
    <path
        d="M12.2297 0.039422C12.1188 0.0689631 11.9317 0.1502 11.8139 0.216667C11.703 0.275748 10.1576 1.87834 8.38343 3.76896L5.16779 7.21047L3.74015 5.71127C2.89466 4.81766 2.20856 4.15299 2.04917 4.07914C1.85512 3.98313 1.668 3.95359 1.35614 3.97574C0.864092 4.00528 0.503718 4.22684 0.219578 4.67734C-0.0229816 5.0466 -0.0714935 5.73342 0.108693 6.147C0.233438 6.44979 3.84411 10.3861 4.29457 10.7184C4.64109 10.9695 5.07769 11.0582 5.50737 10.9622C5.84695 10.8883 5.93012 10.8071 9.82492 6.67135C14.1563 2.06297 14.0455 2.20329 13.9831 1.41307C13.9138 0.512075 13.0406 -0.174749 12.2297 0.039422Z"
        fill="currentColor" />
</svg>