<svg width="25" height="13" viewBox="0 0 25 13" fill="none" xmlns="http://www.w3.org/2000/svg">
<path d="M1.22082 0.128045C1.0872 0.200422 0.903477 0.367445 0.80883 0.495497C0.658508 0.70706 0.641806 0.773869 0.641806 1.15802C0.641806 1.58115 0.647374 1.59785 0.998123 2.22698C1.18742 2.57772 1.51033 3.11777 1.71076 3.41841L2.07264 3.96959L1.12061 4.92162C0.530457 5.51734 0.140735 5.9516 0.0850606 6.07965C-0.226717 6.83683 0.357866 7.68308 1.19855 7.68308C1.63281 7.68308 1.81654 7.5606 2.73517 6.64197L3.60926 5.77344L4.22725 6.30235C4.56129 6.59186 5.06793 6.99272 5.34074 7.18758C5.61911 7.38244 5.84738 7.5606 5.84738 7.58287C5.84738 7.6107 5.60241 8.11177 5.30733 8.70192C4.82297 9.65953 4.76729 9.80428 4.76729 10.0771C4.76172 11.0792 5.95873 11.6193 6.72147 10.9512C6.85509 10.8287 7.07222 10.4724 7.44524 9.72077C7.73474 9.13619 7.97971 8.65182 7.99085 8.64068C7.99641 8.63512 8.17457 8.69079 8.38614 8.7743C8.94288 8.98587 10.1343 9.27537 10.7579 9.35888L11.2979 9.42569L11.3146 10.8565C11.3313 12.2762 11.3313 12.2874 11.4705 12.4878C11.5485 12.6047 11.7099 12.7662 11.8268 12.8497C12.0217 12.9833 12.0996 13 12.4726 13C12.8457 13 12.9236 12.9833 13.1185 12.8497C13.2354 12.7662 13.3968 12.6047 13.4748 12.4878C13.614 12.2874 13.614 12.2762 13.6307 10.8565L13.6474 9.42569L14.1819 9.35888C14.85 9.26981 15.8688 9.02484 16.4812 8.80214C16.7373 8.70749 16.9489 8.63512 16.96 8.64625C16.9656 8.65182 17.2106 9.13619 17.5001 9.72077C17.8731 10.4724 18.0902 10.8287 18.2238 10.9512C18.9866 11.6193 20.1891 11.0792 20.178 10.0771C20.1724 9.80428 20.1112 9.64839 19.6324 8.70192C19.3373 8.11177 19.0979 7.6107 19.0979 7.58287C19.0979 7.5606 19.3262 7.38244 19.6046 7.18758C19.8774 6.99272 20.384 6.59186 20.718 6.30235L21.336 5.77344L22.2101 6.64197C23.1343 7.56616 23.3125 7.68308 23.7579 7.68308C24.3981 7.67751 24.9437 7.14304 24.9437 6.51392C24.9437 6.09079 24.8435 5.9516 23.847 4.94946L22.8782 3.96959L23.2345 3.41841C23.435 3.11777 23.7523 2.57772 23.9472 2.22698C24.2645 1.65909 24.3035 1.55331 24.3202 1.22483C24.3369 0.929758 24.3146 0.818409 24.2088 0.617981C24.0196 0.261664 23.6799 0.0389654 23.2791 0.0111281C22.6277 -0.0334115 22.3382 0.178152 21.8649 1.08008C21.0632 2.58886 19.7827 4.10321 18.4855 5.06081C15.8131 7.04282 12.4559 7.62184 9.46066 6.6197C7.85166 6.07965 6.61569 5.31691 5.35187 4.09207C4.37757 3.14561 3.69834 2.24924 3.08592 1.08565C2.62382 0.217124 2.36215 -6.80145e-06 1.76643 -6.80145e-06C1.56044 -6.80145e-06 1.38785 0.0389654 1.22082 0.128045Z" fill="#A6A6A6"/>
</svg>
