<svg width="40" height="40" viewBox="0 0 40 40" fill="none" xmlns="http://www.w3.org/2000/svg">
<path d="M11.9688 0.055603C10.0234 0.407269 8.20312 2.01712 6.78125 4.63509C6.33594 5.45564 5.69531 6.87794 5.39844 7.68287C5.22656 8.14394 5.21094 8.16739 4.90625 8.21427C4.28125 8.31587 3.67188 8.77694 3.45312 9.32398C3.25 9.82413 0 22.0621 0 22.32C0 22.8124 0.507812 23.2656 1.0625 23.2656C1.44531 23.2656 1.73438 23.0624 1.94531 22.6561C2.09375 22.3669 5.8125 13.5283 6.625 11.5434C7.21875 10.0898 7.20312 9.51153 6.57031 8.79257L6.32812 8.51124L6.67969 7.62816C8.07812 4.12712 9.73438 2.01712 11.6172 1.37631C12.0391 1.22783 12.3125 1.18875 12.9766 1.18875C13.7422 1.18875 13.8359 1.20438 14.2578 1.42319C14.6641 1.62638 14.7578 1.72016 14.9531 2.1109C15.2656 2.72827 15.3047 3.47849 15.0859 4.55694C14.8281 5.81512 14.4375 6.81542 13.3203 9.12079C11.6094 12.6531 11.1094 14.4583 11.2578 16.5996C11.3984 18.4908 12.3984 19.8896 13.9609 20.3741C14.8672 20.6555 16.3203 20.5617 17.5 20.1553C18.0156 19.9756 19.0234 19.4676 19.6094 19.1003L20.0312 18.8268L20.6797 19.5145C21.3281 20.2022 22.0469 20.7805 22.7578 21.1947L23.1406 21.4135L22.4531 22.1012C21.8984 22.6639 21.7734 22.828 21.7734 23.0234C21.7734 23.3594 21.9922 23.5782 22.3281 23.5782C22.5859 23.5782 22.7188 23.461 24 22.195C24.7578 21.4369 25.4062 20.8274 25.4297 20.8508C25.4688 20.8977 28.8281 29.0955 28.8906 29.3065C28.9375 29.494 28.2031 30.2755 28.1172 30.1192C28.0859 30.0645 27.5391 28.7516 26.9141 27.2121C26.2812 25.6648 25.6953 24.3206 25.6016 24.2268C25.3203 23.9142 24.8594 24.0158 24.6953 24.4222C24.6094 24.6332 24.6953 24.8833 25.9219 27.8842L27.25 31.1195L26.4531 31.9244L25.6562 32.7294L22.9688 31.6275C21.4922 31.0257 20.2031 30.5334 20.1016 30.5334C20 30.5334 19.8281 30.6272 19.7109 30.7366C19.5547 30.8929 19.5234 30.9788 19.5625 31.1742C19.5859 31.3071 19.6406 31.4555 19.6797 31.5024C19.7188 31.5493 20.8828 32.0417 22.2578 32.6043L24.7656 33.6202L23.6328 34.7534L22.5 35.8865L19.4531 32.8388L16.4062 29.791L17.8281 28.3687C18.6172 27.5794 19.2969 26.9386 19.3438 26.9386C19.3906 26.9386 20.5 27.3762 21.8125 27.9154C23.125 28.4547 24.25 28.8923 24.3125 28.8923C24.3828 28.8923 24.5234 28.8219 24.6406 28.7282C24.8672 28.5484 24.9219 28.1655 24.7422 27.9311C24.6719 27.8295 22.5625 26.9308 20.3984 26.0711C20.2188 26.0008 20.2266 25.9852 20.7344 25.4616C21.1641 25.0083 21.25 24.8755 21.25 24.6567C21.25 24.3206 21.0312 24.1018 20.6953 24.1018C20.4844 24.1018 20.1562 24.3988 18.0234 26.5322L15.5859 28.9548L15.3125 28.8063C15.0156 28.6422 14.5781 28.6109 14.25 28.736C13.9688 28.8454 12.5312 30.2833 12.4219 30.5647C12.3203 30.8382 12.3203 31.2445 12.4297 31.5259C12.5312 31.7994 20.1406 39.4501 20.6172 39.7627C21.2812 40.1925 21.6484 40.0753 22.6406 39.1062C23.6797 38.0903 23.8438 37.6996 23.5156 37.0588L23.3594 36.7462L27.3047 32.7997C30.7578 29.3377 31.25 28.8219 31.25 28.6109C31.25 28.314 31.0781 28.0639 30.8203 28.0014C30.5938 27.9467 30.3672 28.0405 30.0625 28.3296L29.8516 28.525L29.7656 28.3374C29.4844 27.6966 27.75 23.3828 27.7656 23.3594C27.7891 23.3438 32.8203 25.3756 32.8828 25.4225C32.8984 25.4381 32.6797 25.696 32.3906 26.0008C31.9141 26.4931 31.8672 26.5713 31.8906 26.8292C31.9219 27.2043 32.2266 27.4544 32.5547 27.3762C32.7031 27.3371 33.5 26.5947 34.9688 25.1255C37.0391 23.0624 37.1797 22.9452 37.3438 23.0312C38.0156 23.3906 38.4375 23.2812 39.1875 22.5466C40.0078 21.7495 40.1641 21.3197 39.8516 20.7024C39.7656 20.5461 38.7188 19.4364 37.5234 18.2407C35.1875 15.9197 35.1641 15.9041 34.7344 16.2401C34.5859 16.3573 34.5312 16.4667 34.5312 16.6777C34.5312 16.9434 34.6641 17.0997 36.6797 19.1238L38.8281 21.2806L38.4531 21.6479C38.25 21.8511 38.0469 22.0152 38.0078 22.0152C37.9609 22.0152 36.1953 20.2804 34.0859 18.1704L30.2344 14.3176L30.6406 13.9113L31.0469 13.4971L32.1172 14.5521C32.9922 15.4117 33.2266 15.6071 33.4141 15.6071C33.8906 15.6071 34.1641 15.1773 33.9531 14.7631C33.7891 14.4505 31.7891 12.5046 31.5391 12.4108C31.2656 12.3092 30.8516 12.3014 30.6016 12.3952C30.2891 12.5124 29.3984 13.3955 29.2266 13.7628C29.0234 14.177 29.0234 14.4739 29.2188 14.8647L29.375 15.1773L26.7031 17.8499C24.9688 19.5848 23.9844 20.5148 23.9141 20.4914C23.5 20.3351 22.4609 19.6161 21.9453 19.1316C20.4922 17.7874 19.7109 16.0994 19.5391 13.9269C19.3125 11.137 20.4688 8.07361 22.0469 7.29213C22.7109 6.95609 23.6953 7.04205 24.1641 7.46405C25.3984 8.58157 24.2266 12.4577 21.7188 15.5836C21.1953 16.2323 21.1484 16.4511 21.4453 16.7402C21.8125 17.1154 22.0703 17.0059 22.7422 16.1776C24.1484 14.4271 25.2578 12.2467 25.6719 10.4102C25.8594 9.56624 25.8594 8.36275 25.6641 7.79227C25.3984 6.99516 24.9297 6.44812 24.2266 6.1199C23.9297 5.98705 23.7188 5.95579 22.9688 5.95579C22.1328 5.95579 22.0391 5.97142 21.6016 6.18242C20.9688 6.49501 20.0547 7.41716 19.5859 8.21427C18.1094 10.7463 17.9141 14.3645 19.1094 17.1388C19.2656 17.5139 19.3672 17.8343 19.3281 17.8656C17.875 18.8815 16.5938 19.3582 15.2812 19.3582C14.375 19.3582 13.9297 19.2097 13.3906 18.7096C12.7031 18.0844 12.4141 17.2638 12.4141 15.99C12.4219 14.1223 12.8672 12.7 14.4531 9.47246C15.9062 6.53409 16.3516 5.11179 16.3594 3.45505C16.3672 2.77516 16.3281 2.40005 16.2266 2.07964C15.9531 1.18875 15.3047 0.516678 14.3984 0.19627C13.875 0.0165291 12.625 -0.0616188 11.9688 0.055603ZM5.53906 9.47246C5.85156 9.62876 5.96094 9.98042 5.82812 10.3712C5.64062 10.926 1.92188 19.7411 1.89062 19.7177C1.85938 19.6864 4.39844 10.1289 4.52344 9.79287C4.67969 9.39431 5.11719 9.25364 5.53906 9.47246ZM33.2969 19.0222L36.3281 22.0543L35.9609 22.4216C35.7578 22.6326 35.5547 22.7967 35.5156 22.7967C35.4688 22.7967 33.9688 22.195 32.1797 21.4682C30.3906 20.7336 28.8672 20.1397 28.7969 20.1397C28.7266 20.1397 28.5781 20.2256 28.4766 20.3351C28.2266 20.5773 28.2188 20.9212 28.4609 21.1322C28.5547 21.2181 29.9531 21.8277 31.5625 22.4841C33.1719 23.1406 34.5156 23.6954 34.5469 23.7267C34.5859 23.7579 34.4375 23.9533 34.2266 24.1565L33.8359 24.5394L30.5312 23.1953C28.7109 22.4529 27.1875 21.8042 27.1328 21.7574C27.0859 21.7026 26.8828 21.265 26.6797 20.7727L26.3125 19.8818L28.2578 17.9359C29.3203 16.8731 30.2109 15.9978 30.2344 15.9978C30.2578 15.9978 31.6328 17.3576 33.2969 19.0222ZM21.8984 38.2075L21.2891 38.8171L17.4062 34.9331L13.5156 31.0414L14.1172 30.4396L14.7266 29.8301L18.6094 33.714L22.5 37.6058L21.8984 38.2075Z" fill="currentColor"/>
</svg>
