<svg width="60" height="60" viewBox="0 0 60 60" fill="none" xmlns="http://www.w3.org/2000/svg">
<path d="M28.1596 0.11845C26.2903 0.5056 24.4942 1.39722 23.1991 2.60559C22.0139 3.70839 2.44056 23.6994 1.91519 24.3446C1.25541 25.1541 0.522323 26.6206 0.229089 27.6999C-0.0763631 28.8262 -0.0763631 31.1491 0.229089 32.2754C0.522323 33.3547 1.25541 34.8212 1.91519 35.6307C2.44056 36.2759 22.0139 56.2669 23.1991 57.3697C25.6061 59.5988 29.186 60.5138 32.436 59.7161C34.2076 59.2937 36.6512 57.8273 37.3965 56.7362C38.4595 55.1993 37.311 53.0993 35.4294 53.0993C34.6719 53.0993 34.2076 53.3105 33.3768 54.0144C31.6907 55.4222 29.7358 55.7038 27.8298 54.8004C26.9745 54.3898 26.6935 54.1317 16.4058 43.6552C4.29771 31.3485 4.88418 32.0407 4.88418 30.058C4.88418 28.9201 5.09189 28.1927 5.6417 27.4067C5.80054 27.1837 10.6511 22.186 16.4303 16.2966C26.9012 5.64413 26.9501 5.58548 27.8786 5.1514C28.7583 4.72905 28.8927 4.70559 29.9191 4.70559C31.0798 4.70559 31.8006 4.8933 32.6681 5.39777C33.1691 5.70279 53.9643 26.8083 54.4041 27.4653C55.3938 28.9435 55.3816 31.1022 54.3919 32.5217C54.2086 32.7681 51.3252 35.7597 47.9896 39.1737C44.6419 42.5759 41.7828 45.5792 41.6362 45.8491C40.8298 47.2569 41.8561 49.0284 43.5667 49.1809C44.7763 49.2982 44.8251 49.2513 51.5817 42.3764C54.9295 38.9625 57.8741 35.9005 58.1428 35.572C58.7904 34.7508 59.3769 33.5776 59.7068 32.4865C60.0977 31.1726 60.0977 28.8027 59.7068 27.4888C59.3769 26.3977 58.7904 25.2245 58.1428 24.4033C57.3975 23.4648 37.311 3.03967 36.3213 2.20671C35.3195 1.38549 33.67 0.552525 32.436 0.247498C31.3486 -0.0223312 29.1615 -0.0809937 28.1596 0.11845Z" fill="white"/>
<path d="M28.8928 18.3966C28.5752 18.5608 28.1964 18.8776 27.9765 19.1709L27.6099 19.6871L27.5733 24.9077L27.5366 30.1401L27.8543 30.7737C28.2331 31.501 28.9417 31.982 29.8092 32.0759C30.5667 32.158 31.593 31.6653 32.0451 31.0083L32.375 30.5273L32.4116 25.3653C32.4361 21.8809 32.4116 20.0508 32.3139 19.7575C31.9107 18.4083 30.2368 17.7513 28.8928 18.3966Z" fill="white"/>
<path d="M29.2104 37.3083C27.3533 37.977 27.0111 40.3234 28.6239 41.4144C30.1023 42.4234 32.1794 41.5083 32.3993 39.7602C32.5948 38.1178 30.811 36.7452 29.2104 37.3083Z" fill="white"/>
</svg>
