<svg width="30" height="30" viewBox="0 0 30 30" fill="none" xmlns="http://www.w3.org/2000/svg">
<g clip-path="url(#clip0_205_6212)">
<path d="M3.82031 0.234375C3.71484 0.298828 3.58008 0.433594 3.51563 0.539062C3.41016 0.714844 3.39844 0.837891 3.39844 2.0625V3.39844H3.17578C2.81836 3.39844 2.06836 3.61523 1.70508 3.82031C1.2832 4.06055 0.779297 4.56445 0.539063 4.99219C0.433594 5.17383 0.292969 5.53125 0.228516 5.7832C0.117188 6.22852 0.117188 6.41602 0.128906 10.1719L0.146484 14.0918L0.287109 14.4434C0.480469 14.9297 1.01367 15.457 1.49414 15.6445C1.78125 15.7617 1.98633 15.7852 2.625 15.8086L3.39844 15.832V18.3281C3.39844 20.7188 3.4043 20.8359 3.51563 21.0234C3.86133 21.5918 4.63477 21.5625 4.93359 20.9707C5.01563 20.8184 5.03906 20.625 5.03906 20.168V19.5703H5.4082C6.01758 19.5703 6.375 19.3008 6.42773 18.8027C6.48047 18.2754 6.08203 17.9297 5.4375 17.9297H5.03906V16.8809V15.832L5.81836 15.8086C6.82031 15.7734 7.14258 15.6621 7.65234 15.1523C8.22656 14.5781 8.28516 14.373 8.30859 12.8438L8.32617 11.5957L12.2637 11.6133L16.2012 11.6309L16.6699 11.7949C18.9141 12.5918 19.9219 14.9883 18.9727 17.2676C18.1934 19.1484 16.4648 20.2676 14.3379 20.2734C13.4824 20.2734 12.9199 20.3965 12.2461 20.7246C11.7832 20.9473 11.6074 21.0762 11.1855 21.498C10.7754 21.9082 10.6348 22.1016 10.418 22.5352C10.2715 22.834 10.1309 23.1797 10.1074 23.3145L10.0664 23.5547H6.31055C2.18555 23.5547 2.0918 23.5605 1.5 23.9062C1.11914 24.123 0.685547 24.5566 0.46875 24.9375C0.164063 25.4648 0.117188 25.8105 0.117188 27.6328C0.117188 29.25 0.117188 29.2852 0.251953 29.4785C0.322266 29.5898 0.474609 29.7246 0.585938 29.7773C0.779297 29.877 1.58789 29.8828 15 29.8828C28.4121 29.8828 29.2207 29.877 29.4082 29.7773C29.5195 29.7246 29.666 29.6016 29.7305 29.5137C29.8477 29.3555 29.8535 29.2617 29.8711 27.6973C29.8945 25.459 29.8066 25.0898 29.0508 24.334C28.5293 23.8066 27.873 23.5547 27.0059 23.5547H26.6016V20.3965V17.2383L27.3809 17.2148C28.0137 17.1914 28.2188 17.168 28.5059 17.0508C28.9863 16.8633 29.5195 16.3359 29.7129 15.8496L29.8535 15.498V12.4219C29.8535 9.3457 29.8535 9.3457 29.7188 9.01172C29.5605 8.61914 29.1504 8.14453 28.793 7.93359C28.4004 7.70508 27.9902 7.61719 27.2637 7.61719H26.6016V6.92578C26.6016 6.12891 26.502 5.64844 26.2383 5.10938C26.0098 4.65234 25.4707 4.08398 25.0078 3.82031C24.6504 3.61523 23.9004 3.39844 23.543 3.39844H23.3203V2.0625C23.3203 0.837891 23.3086 0.714844 23.2031 0.539062C22.8691 -0.0117188 22.1309 -0.0117188 21.7969 0.539062C21.6914 0.714844 21.6797 0.837891 21.6797 2.0625V3.39844H13.3594H5.03906V2.0625C5.03906 0.837891 5.02734 0.714844 4.92188 0.539062C4.76953 0.292969 4.47656 0.117188 4.21875 0.117188C4.10742 0.117188 3.92578 0.169922 3.82031 0.234375ZM6.67969 6.38086C6.67969 7.66992 6.68555 7.72266 6.81445 7.91602C7.10156 8.34961 6.65625 8.32031 13.3594 8.32031C18.9609 8.32031 19.377 8.31445 19.5645 8.21484C19.6758 8.16211 19.8223 8.03906 19.8867 7.95117C20.0039 7.79297 20.0098 7.69336 20.0273 6.41016L20.0449 5.0332L21.9609 5.05078C23.7949 5.06836 23.8887 5.07422 24.1113 5.19727C24.3867 5.34375 24.668 5.63086 24.8203 5.91797C24.9258 6.11719 24.9316 6.46875 24.9492 14.8359L24.9609 23.5547H18.3633H11.7715L11.8125 23.4199C11.8945 23.1504 12.2754 22.6582 12.5742 22.4297C13.0957 22.0371 13.3711 21.9668 14.502 21.9082C16.0254 21.8379 16.957 21.5566 18.041 20.8594C19.0547 20.2031 20.0039 19.0723 20.4551 17.9941C20.8184 17.1211 20.9355 16.5352 20.9414 15.5273C20.9414 14.7539 20.9238 14.543 20.8066 14.1211C20.543 13.1426 20.1211 12.3984 19.418 11.6602C18.7148 10.9219 17.8711 10.4238 16.8457 10.1309C16.377 9.99609 16.3594 9.99609 11.8359 9.97852C7.37109 9.96094 7.28906 9.96094 7.10156 10.0781C6.99609 10.1426 6.86133 10.2773 6.79688 10.3828C6.68555 10.5645 6.67969 10.6816 6.67969 12.1406C6.67969 13.2305 6.65625 13.752 6.60938 13.8574C6.46875 14.168 6.38672 14.1797 4.21875 14.1797C2.0332 14.1797 1.95703 14.168 1.82227 13.8457C1.77539 13.7227 1.75781 12.6855 1.76953 9.90234C1.78711 6.3457 1.79297 6.11133 1.89844 5.91797C2.10938 5.51953 2.4668 5.21484 2.87109 5.0918C2.95313 5.06836 3.84375 5.04492 4.85156 5.04492L6.67969 5.03906V6.38086ZM18.3984 5.85938V6.67969H13.3594H8.32031V5.85938V5.03906H13.3594H18.3984V5.85938ZM27.9199 9.32812C28.2422 9.47461 28.2422 9.49219 28.2422 12.416C28.2422 14.3789 28.2246 15.1523 28.1719 15.2637C28.0605 15.5156 27.8438 15.5859 27.1875 15.5859H26.6016V12.4219V9.25781H27.1875C27.5098 9.25781 27.8379 9.28711 27.9199 9.32812ZM27.5801 25.2832C28.1602 25.5234 28.2422 25.752 28.2422 27.1406V28.2422H15H1.75781V27.1582C1.75781 25.7871 1.83398 25.5527 2.37305 25.3066C2.5957 25.2012 3.09961 25.1953 14.9883 25.1953C25.998 25.1953 27.3926 25.207 27.5801 25.2832Z" fill="currentColor"/>
<path d="M20.6953 10.0781C20.1445 10.4121 20.1445 11.1504 20.6953 11.4844C20.8652 11.5898 20.9941 11.6016 21.7676 11.6016C22.4883 11.6016 22.6816 11.584 22.8457 11.4961C23.4375 11.1973 23.4668 10.4238 22.8984 10.0781C22.7285 9.97266 22.5996 9.96094 21.7969 9.96094C20.9941 9.96094 20.8652 9.97266 20.6953 10.0781Z" fill="currentColor"/>
</g>
<defs>
<clipPath id="clip0_205_6212">
<rect width="30" height="30" fill="white"/>
</clipPath>
</defs>
</svg>
