<?xml version="1.0" standalone="no"?>
<!DOCTYPE svg PUBLIC "-//W3C//DTD SVG 20010904//EN" "http://www.w3.org/TR/2001/REC-SVG-20010904/DTD/svg10.dtd">
<svg version="1.0" xmlns="http://www.w3.org/2000/svg"
    width="512.000000pt" height="512.000000pt" viewBox="0 0 512.000000 512.000000"
    preserveAspectRatio="xMidYMid meet">

    <g transform="translate(0.000000,512.000000) scale(0.100000,-0.100000)"
        fill="currentColor" stroke="none">
        <path
            d="M2305 5109 c-906 -85 -1702 -612 -2076 -1374 -230 -470 -288 -1006
-163 -1506 70 -283 181 -514 388 -814 13 -18 -8 -75 -216 -585 -215 -526 -231
-569 -232 -630 -1 -52 4 -72 23 -103 60 -97 174 -119 301 -60 36 17 328 146
650 288 l584 258 141 -46 c298 -96 516 -130 840 -131 244 -1 361 9 561 49 265
53 652 195 732 269 105 95 72 275 -60 331 -62 25 -103 19 -227 -37 -162 -71
-256 -105 -406 -143 -474 -121 -963 -94 -1427 81 -98 36 -132 45 -168 42 -31
-3 -192 -69 -504 -207 -252 -111 -461 -199 -464 -197 -2 3 66 180 152 393 86
214 159 403 162 421 10 52 -13 113 -73 188 -404 502 -525 1131 -332 1724 43
134 143 337 223 455 211 311 476 537 831 710 221 109 427 172 685 212 160 24
509 24 670 -1 1215 -189 2012 -1226 1778 -2315 -42 -198 -141 -435 -251 -605
-30 -45 -60 -100 -67 -120 -42 -129 64 -263 201 -254 83 6 121 34 194 147 225
344 346 722 362 1131 35 891 -478 1719 -1332 2151 -258 130 -527 215 -823 259
-159 24 -500 34 -657 19z" />
        <path
            d="M2492 3829 c-48 -14 -109 -80 -123 -131 -23 -89 12 -182 88 -229 57
-36 154 -34 210 3 62 41 88 90 88 168 0 77 -26 127 -85 166 -43 29 -125 39
-178 23z" />
        <path
            d="M2492 3139 c-46 -14 -109 -80 -122 -128 -7 -28 -10 -228 -8 -624 l3
-583 27 -41 c41 -62 90 -88 168 -88 78 0 127 26 168 88 l27 41 0 605 0 606
-24 38 c-47 76 -151 113 -239 86z" />
    </g>
</svg>