<svg width="23" height="23" viewBox="0 0 23 23" fill="none" xmlns="http://www.w3.org/2000/svg">
    <path
        d="M10.6364 0.013319C10.5509 0.0223122 10.2855 0.0537834 10.0516 0.080761C6.49337 0.485413 3.20508 2.7155 1.39674 5.94823C0.739979 7.12622 0.263154 8.59196 0.0607278 10.0577C-0.0202426 10.6197 -0.0202426 12.3732 0.0607278 12.9352C0.533055 16.3613 2.35939 19.2703 5.21584 21.1452C8.70656 23.4382 13.2814 23.6181 16.979 21.6128C17.5413 21.3071 17.6718 21.2036 17.7842 20.9698C17.9777 20.5697 17.8517 20.1021 17.4784 19.8368C17.3164 19.7244 17.2444 19.7019 17.0105 19.7019C16.8396 19.7019 16.6821 19.7289 16.5967 19.7739C15.841 20.183 15.5351 20.3314 15.1122 20.5022C13.6592 21.0867 12.0983 21.3116 10.5644 21.1587C6.72279 20.781 3.46598 18.1732 2.27392 14.5269C1.60816 12.4946 1.60816 10.4983 2.27392 8.46607C3.23656 5.53009 5.52623 3.24155 8.47265 2.27938C10.4924 1.61844 12.4942 1.61844 14.5229 2.28387C16.7181 3.00325 18.54 4.44652 19.7905 6.46079C20.5192 7.63878 21.0186 9.13599 21.1625 10.5927C21.3649 12.661 20.8476 14.8191 19.696 16.667C19.4441 17.0717 19.4306 17.1077 19.4306 17.3864C19.4306 17.7371 19.5476 17.9574 19.8265 18.1418C20.0784 18.3081 20.5147 18.3171 20.7711 18.1553C21.041 17.9889 21.5898 17.0987 22.0127 16.1365C24.1224 11.3706 22.7729 5.80885 18.7109 2.53566C17.0735 1.21829 15.2562 0.426964 13.1104 0.0987453C12.6606 0.0313034 10.9872 -0.0271454 10.6364 0.013319Z"
        fill="currentColor" />
    <path
        d="M14.6767 7.01167C14.6265 7.02287 14.5299 7.05648 14.463 7.08821C14.3589 7.13862 14.279 7.20956 13.8776 7.60909L13.4131 8.07209L14.3831 9.0485L15.3549 10.0249L15.8213 9.55817C16.0759 9.30053 16.323 9.04289 16.3658 8.98502C16.5163 8.78712 16.5442 8.52762 16.442 8.29985C16.4029 8.21584 16.3044 8.10569 15.9068 7.7043C15.4088 7.19836 15.275 7.08821 15.1059 7.03781C14.9814 7.00047 14.79 6.98927 14.6767 7.01167Z"
        fill="currentColor" />
    <path
        d="M10.4494 11.0514L8.00586 13.5064L8.97212 14.4772L9.93839 15.448L12.3912 12.9836L14.844 10.5193L13.8871 9.55782C13.3612 9.02947 12.9227 8.59635 12.9115 8.59635C12.9004 8.59635 11.7929 9.70157 10.4494 11.0514Z"
        fill="currentColor" />
    <path
        d="M7.23651 15.1607C7.06555 15.9354 6.99308 16.292 7.00052 16.335C7.01352 16.404 7.07299 16.4657 7.15475 16.4937C7.20492 16.5123 7.35729 16.4787 8.30497 16.2491C8.90703 16.1035 9.40317 15.9803 9.40874 15.9765C9.41803 15.969 7.51152 14.048 7.49294 14.048C7.48736 14.048 7.37216 14.5483 7.23651 15.1607Z"
        fill="currentColor" />
</svg>