<svg width="61" height="60" viewBox="0 0 61 60" fill="none" xmlns="http://www.w3.org/2000/svg">
<path d="M27.9326 0.0346527C27.71 0.0580902 27.0186 0.140121 26.4092 0.210434C17.1396 1.26512 8.57324 7.07762 3.8623 15.5034C2.15137 18.5737 0.90918 22.394 0.381836 26.2143C0.170898 27.6792 0.170898 32.2495 0.381836 33.7143C1.6123 42.644 6.37012 50.2261 13.8115 55.1128C22.9053 61.0893 34.8232 61.5581 44.4561 56.3315C45.9209 55.5347 46.2607 55.2651 46.5537 54.6557C47.0576 53.6128 46.7295 52.394 45.7568 51.7026C45.335 51.4097 45.1475 51.3511 44.5381 51.3511C44.0928 51.3511 43.6826 51.4214 43.46 51.5386C41.4912 52.605 40.6943 52.9917 39.5928 53.437C35.8076 54.9604 31.7412 55.5464 27.7451 55.1479C17.7373 54.1636 9.25293 47.3667 6.14746 37.8628C4.41309 32.5659 4.41309 27.3628 6.14746 22.0659C8.65527 14.4136 14.6201 8.44872 22.2959 5.9409C27.5576 4.21825 32.7725 4.21825 38.0576 5.95262C43.7764 7.82762 48.5225 11.5893 51.7803 16.8393C53.6787 19.9097 54.9795 23.812 55.3545 27.6089C55.8818 32.9995 54.5342 38.6245 51.5342 43.4409C50.8779 44.4956 50.8428 44.5893 50.8428 45.3159C50.8428 46.23 51.1475 46.8042 51.874 47.2847C52.5303 47.7182 53.667 47.7417 54.335 47.3198C55.0381 46.8862 56.4678 44.5659 57.5693 42.0581C63.0654 29.6362 59.5498 15.1401 48.9678 6.60887C44.7021 3.17528 39.9678 1.11278 34.3779 0.257309C33.2061 0.0815277 28.8467 -0.070816 27.9326 0.0346527Z" fill="white"/>
<path d="M38.0353 16.0327C37.8927 16.0645 37.6182 16.1601 37.4281 16.2503C37.1324 16.3936 36.9054 16.5953 35.765 17.731L34.4451 19.0471L37.2011 21.8228L39.9623 24.5984L41.2875 23.2716C42.0109 22.5392 42.7131 21.8068 42.8345 21.6423C43.2622 21.0798 43.3413 20.3421 43.051 19.6946C42.9401 19.4558 42.6603 19.1427 41.5304 18.0016C40.1155 16.5634 39.7353 16.2503 39.2549 16.107C38.9011 16.0009 38.3573 15.969 38.0353 16.0327Z" fill="white"/>
<path d="M26.0241 27.5174L19.0813 34.4962L21.8267 37.2559L24.5722 40.0156L31.5414 33.0102L38.5106 26.0048L35.7915 23.2717C34.2974 21.7698 33.0514 20.5385 33.0197 20.5385C32.988 20.5385 29.8413 23.6803 26.0241 27.5174Z" fill="white"/>
<path d="M16.8956 39.1982C16.4099 41.4007 16.204 42.4144 16.2251 42.5364C16.2621 42.7328 16.431 42.9079 16.6633 42.9875C16.8059 43.0406 17.2388 42.9451 19.9314 42.2923C21.6421 41.8783 23.0517 41.5281 23.0676 41.5175C23.094 41.4962 17.677 36.0352 17.6242 36.0352C17.6084 36.0352 17.281 37.4575 16.8956 39.1982Z" fill="white"/>
</svg>
