<svg width="30" height="30" viewBox="0 0 30 30" fill="none" xmlns="http://www.w3.org/2000/svg">
<path d="M13.8735 0.0173721C13.762 0.0291004 13.4158 0.0701523 13.1107 0.105339C8.46962 0.633148 4.18053 3.54196 1.82183 7.75856C0.96519 9.29507 0.343244 11.2069 0.0792101 13.1187C-0.0264034 13.8518 -0.0264034 16.139 0.0792101 16.872C0.695289 21.3408 3.07746 25.1352 6.80327 27.5807C11.3564 30.5716 17.3235 30.8062 22.1466 28.1906C22.88 27.7918 23.0501 27.6569 23.1968 27.352C23.4491 26.83 23.2848 26.2201 22.7978 25.8741C22.5866 25.7275 22.4927 25.6982 22.1876 25.6982C21.9647 25.6982 21.7593 25.7334 21.6478 25.792C20.6621 26.3257 20.2631 26.5192 19.7116 26.7421C17.8164 27.5044 15.7804 27.7977 13.7796 27.5983C8.76886 27.1057 4.52084 23.7042 2.96598 18.9481C2.0976 16.2973 2.0976 13.6935 2.96598 11.0427C4.22161 7.21316 7.20812 4.22811 11.0513 2.9731C13.6858 2.11101 16.2968 2.11101 18.943 2.97896C21.8063 3.91729 24.1826 5.7998 25.8137 8.42711C26.7642 9.96362 27.4155 11.9165 27.6033 13.8166C27.8673 16.5143 27.1925 19.3293 25.6905 21.7396C25.3619 22.2674 25.3443 22.3143 25.3443 22.6779C25.3443 23.1354 25.4969 23.4227 25.8606 23.6632C26.1892 23.8802 26.7584 23.8919 27.0928 23.6808C27.4448 23.4638 28.1607 22.3026 28.7122 21.0476C31.464 14.8312 29.7038 7.57676 24.4055 3.30738C22.2698 1.58907 19.8993 0.556908 17.1006 0.128798C16.5138 0.0408287 14.3312 -0.035408 13.8735 0.0173721Z" fill="currentColor"/>
<path d="M18.9318 8.02344C18.8605 8.03938 18.723 8.08718 18.6278 8.13233C18.4798 8.20404 18.3661 8.30497 17.7951 8.87333L17.1343 9.53199L18.5142 10.921L19.8967 12.3101L20.5602 11.6461C20.9224 11.2796 21.2739 10.9131 21.3347 10.8307C21.5489 10.5492 21.5885 10.18 21.4431 9.85601C21.3876 9.7365 21.2475 9.5798 20.6818 9.00878C19.9734 8.28903 19.783 8.13233 19.5425 8.06063C19.3654 8.00751 19.0931 7.99157 18.9318 8.02344Z" fill="currentColor"/>
<path d="M12.9179 13.7708L9.44177 17.2633L10.8164 18.6443L12.191 20.0254L15.6804 16.5196L19.1697 13.0138L17.8084 11.646C17.0602 10.8944 16.4364 10.2783 16.4205 10.2783C16.4047 10.2783 14.8292 11.8505 12.9179 13.7708Z" fill="currentColor"/>
<path d="M8.34744 19.6164C8.10424 20.7186 8.00115 21.2258 8.01172 21.2869C8.03023 21.3852 8.11482 21.4728 8.23113 21.5127C8.3025 21.5392 8.51927 21.4914 9.86744 21.1648C10.7239 20.9576 11.4297 20.7823 11.4377 20.777C11.4509 20.7664 8.73868 18.0335 8.71224 18.0335C8.70431 18.0335 8.54042 18.7452 8.34744 19.6164Z" fill="currentColor"/>
</svg>
