<svg width="20" height="20" viewBox="0 0 20 20" fill="none" xmlns="http://www.w3.org/2000/svg">
<path d="M16.1567 0.0241876C16.0511 0.0477748 15.8478 0.118536 15.707 0.185367C15.488 0.291509 15.3198 0.440894 14.475 1.28217L13.4973 2.25711L15.5388 4.31312L17.5842 6.36914L18.5658 5.38634C19.1016 4.84384 19.6218 4.30133 19.7117 4.17946C20.0285 3.76276 20.0872 3.21632 19.8721 2.73671C19.7899 2.55981 19.5826 2.32787 18.7457 1.48266C17.6976 0.417307 17.416 0.185367 17.0601 0.0792241C16.7981 0.000600338 16.3953 -0.0229869 16.1567 0.0241876Z" fill="currentColor"/>
<path d="M7.25951 8.53133L2.1167 13.7009L4.15036 15.7451L6.18402 17.7893L11.3464 12.6001L16.5087 7.41094L14.4946 5.38638C13.3879 4.27385 12.4649 3.36181 12.4414 3.36181C12.418 3.36181 10.0871 5.68908 7.25951 8.53133Z" fill="currentColor"/>
<path d="M0.49777 17.1839C0.137968 18.8153 -0.014556 19.5662 0.00108751 19.6566C0.0284637 19.8021 0.153612 19.9318 0.325691 19.9908C0.431285 20.0301 0.751977 19.9593 2.74653 19.4758C4.01365 19.1691 5.05786 18.9097 5.06959 18.9018C5.08914 18.8861 1.07658 14.8409 1.03747 14.8409C1.02574 14.8409 0.783264 15.8945 0.49777 17.1839Z" fill="currentColor"/>
</svg>
