<svg width="21" height="20" viewBox="0 0 21 20" fill="none" xmlns="http://www.w3.org/2000/svg">
<g clip-path="url(#clip0_118_651)">
<path d="M9.32513 0.0415878C6.1487 0.35545 3.36535 2.00039 1.6739 4.56422C-0.259756 7.49108 -0.374902 11.2839 1.37611 14.3128C2.17021 15.6893 3.30976 16.8691 4.71533 17.7653C5.66032 18.3666 7.09765 18.9414 8.19352 19.1493C9.04322 19.3119 9.36483 19.3422 10.2979 19.3422C11.235 19.3422 11.6201 19.3044 12.4102 19.1493C15.9043 18.4535 18.8227 15.9653 19.9463 12.7133C20.3116 11.662 20.4426 10.8566 20.4426 9.68055C20.4426 8.54233 20.3156 7.74065 19.9821 6.74991C19.4897 5.27514 18.6718 3.997 17.5124 2.87769C15.9281 1.34998 13.9667 0.40839 11.7075 0.0907459C11.2191 0.0226803 9.80953 -0.00757217 9.32513 0.0415878ZM13.5339 8.39485L10.7942 11.0041H10.2979H9.80159L7.06192 8.39485L4.32225 5.78563H10.2979H16.2736L13.5339 8.39485ZM5.73973 11.6167L3.86563 13.4053V9.8318V6.25832L5.73973 8.04695L7.6178 9.8318L5.73973 11.6167ZM16.7302 9.83937V13.4053L14.8561 11.6204L12.978 9.8318L14.8442 8.05452C15.8686 7.0789 16.7143 6.27723 16.7183 6.27723C16.7262 6.27723 16.7302 7.88057 16.7302 9.83937ZM8.82087 10.9738L9.5038 11.628H10.2979H11.092L11.775 10.9738C12.1522 10.6184 12.4817 10.3234 12.5016 10.3234C12.5254 10.3234 13.3116 11.0532 14.2486 11.9494L15.9559 13.5755H10.2979H4.63989L6.34722 11.9494C7.28427 11.0532 8.07044 10.3234 8.09426 10.3234C8.11411 10.3234 8.44367 10.6184 8.82087 10.9738Z" fill="currentColor"/>
</g>
<defs>
<clipPath id="clip0_118_651">
<rect width="20.3292" height="19.3611" fill="white" transform="translate(0.133301)"/>
</clipPath>
</defs>
</svg>
