<?xml version="1.0" standalone="no"?>
<!DOCTYPE svg PUBLIC "-//W3C//DTD SVG 20010904//EN"
 "http://www.w3.org/TR/2001/REC-SVG-20010904/DTD/svg10.dtd">
<svg version="1.0" xmlns="http://www.w3.org/2000/svg"
 width="512.000000pt" height="512.000000pt" viewBox="0 0 512.000000 512.000000"
 preserveAspectRatio="xMidYMid meet">

<g transform="translate(0.000000,512.000000) scale(0.100000,-0.100000)"
fill="currentColor" stroke="none">
<path d="M698 5109 c-168 -24 -324 -105 -453 -234 -135 -135 -211 -288 -236
-472 -6 -52 -9 -697 -7 -1898 l3 -1820 23 -75 c89 -292 300 -501 587 -582 80
-23 80 -23 1004 -26 1017 -3 1022 -3 1179 58 193 74 368 244 451 435 59 135
64 174 69 552 2 235 0 369 -7 403 -24 113 -117 191 -229 191 -95 1 -164 -38
-215 -121 -21 -34 -22 -47 -27 -405 l-5 -370 -26 -56 c-37 -79 -90 -133 -167
-171 l-67 -33 -915 0 -915 0 -60 28 c-101 47 -163 121 -190 224 -23 86 -23
3560 0 3646 27 103 89 177 190 224 l60 28 915 0 915 0 56 -26 c79 -37 133 -90
171 -167 l33 -67 5 -330 c6 -363 5 -358 72 -422 135 -130 360 -59 399 125 7
38 10 154 6 366 -4 333 -11 380 -68 511 -84 195 -263 365 -462 440 -145 54
-163 55 -1136 54 -493 -1 -922 -5 -953 -10z"/>
<path d="M3945 3644 c-58 -20 -109 -66 -134 -119 -25 -54 -28 -148 -5 -203 10
-24 100 -122 257 -279 l241 -243 -1064 0 c-1050 0 -1066 -1 -1110 -21 -95 -43
-144 -117 -144 -219 0 -102 49 -176 144 -219 44 -20 60 -21 1110 -21 l1064 0
-246 -247 c-238 -240 -247 -250 -263 -307 -15 -50 -16 -68 -6 -112 32 -142
166 -220 307 -179 58 16 63 21 525 483 437 438 468 470 484 521 21 65 17 131
-13 192 -15 31 -155 178 -479 501 -439 437 -460 457 -512 472 -65 19 -103 19
-156 0z"/>
</g>
</svg>
