<svg width="38" height="42" viewBox="0 0 38 42" fill="none" xmlns="http://www.w3.org/2000/svg">
    <path
        d="M14.5195 0.055088C7.5111 0.59491 2.28974 2.80072 0.660971 5.90934C-0.0277647 7.21236 0.00015706 6.90522 0.00015706 13.9601V20.289L0.214224 20.8289C0.707508 22.0388 1.90814 23.4535 3.18323 24.3191C4.07673 24.924 5.60312 25.6407 6.91544 26.0781C7.95785 26.4132 9.28879 26.7203 11.4388 27.1112L11.8111 27.1764L9.9496 28.405C8.93511 29.0751 7.34357 30.1082 6.42216 30.6852C4.69101 31.7835 4.44902 32.0162 4.57001 32.4722C4.60724 32.6304 5.46351 33.4123 7.19466 34.8828C15.2454 41.6771 15.2175 41.6492 15.4874 41.6492C15.7573 41.6492 17.3396 40.4485 21.593 37.0049C28.3314 31.5601 30.258 29.7359 32.7058 26.4784C35.5073 22.7555 36.7452 19.4514 37.0895 14.7512C37.3222 11.5775 36.7917 8.79459 35.5073 6.50501C34.9302 5.49052 33.3294 3.88037 32.3242 3.31263C30.7513 2.42844 29.2249 1.93515 27.3262 1.68386C26.7864 1.6094 26.1163 1.46979 25.8557 1.3581C24.6364 0.874126 22.5609 0.418072 20.5692 0.18539C19.0335 0.00855255 15.9714 -0.0565987 14.5195 0.055088ZM18.7077 1.53494C26.7119 2.20506 32.0915 5.27645 31.4307 8.81321C31.1236 10.4513 29.8299 11.8008 27.41 12.9922C23.3241 15.0211 17.0696 15.7285 11.5318 14.7978C6.61761 13.9694 2.99709 12.0894 1.8523 9.76254C1.53585 9.12965 1.49862 8.99004 1.49862 8.32923C1.49862 7.66842 1.53585 7.5288 1.8523 6.8773C3.59275 3.35916 11.3085 0.920662 18.7077 1.53494ZM32.4731 5.22061C34.0274 6.43986 35.1071 8.58052 35.5166 11.261C35.6841 12.3593 35.6655 14.956 35.4701 16.2869C35.3025 17.4131 34.7255 19.8516 34.5952 19.9819C34.558 20.0191 34.288 19.7306 34.0088 19.3304C33.4225 18.502 33.1246 18.3066 32.7058 18.4741C32.5569 18.5393 32.3894 18.6696 32.3428 18.7626C32.1288 19.1536 32.2498 19.4421 33.0874 20.6148L33.9251 21.7689L33.4969 22.5693C32.9478 23.5652 32.0915 24.8961 31.9892 24.8961C31.9426 24.8961 31.4493 24.3656 30.8909 23.7141C29.6158 22.2156 29.4948 22.104 29.1598 22.104C28.7968 22.104 28.4338 22.4762 28.4338 22.8392C28.4338 23.0719 28.6572 23.3884 29.5693 24.4494C30.1836 25.1847 30.7792 25.8734 30.8816 25.9851L31.0584 26.1898L30.3604 27.0089C29.9788 27.4556 29.4204 28.0978 29.1225 28.4143L28.5734 29.0099L26.684 27.4649C25.0553 26.1433 24.7388 25.9199 24.4689 25.9199C24.2735 25.9199 24.078 25.9944 23.9663 26.1061C23.7522 26.3201 23.715 26.8227 23.9012 27.0647C23.957 27.1485 24.7853 27.8465 25.7347 28.619C26.684 29.3915 27.4565 30.0616 27.4565 30.1175C27.4565 30.2106 24.6271 32.9004 24.5247 32.9004C24.4968 32.8911 23.6219 32.0999 22.5795 31.132C20.8112 29.4939 20.6529 29.3636 20.3272 29.3636C20.0573 29.3636 19.9363 29.4194 19.7874 29.6056C19.4058 30.0896 19.4895 30.2478 20.8205 31.5043C21.4999 32.1465 22.3469 32.9562 22.7098 33.3006L23.3613 33.9335L22.9425 34.3058C22.7098 34.5105 22.1142 35.0131 21.6209 35.4133L20.7181 36.1579L20.5226 35.7111C20.2806 35.1434 19.7781 34.6501 19.1731 34.3709C18.7636 34.1848 18.5867 34.1568 17.7212 34.1754C16.8277 34.2034 16.6974 34.1848 16.4181 33.9893C16.1575 33.8125 16.0831 33.6822 15.9714 33.2261C15.8969 32.919 15.8039 32.5188 15.7666 32.3326C15.6549 31.8859 15.2547 31.3088 14.808 30.9551C14.2495 30.5177 13.6073 30.3595 12.6301 30.4339C11.839 30.4991 11.8017 30.4898 11.5225 30.2571C11.3643 30.1268 11.1875 29.8941 11.1409 29.7452C11.0479 29.4846 11.0479 29.4753 12.6859 28.377C17.1069 25.3987 21.4999 22.0946 24.7109 19.349C26.0884 18.167 28.8061 15.5051 29.7275 14.4255C31.2539 12.6478 32.4266 10.8608 32.7989 9.75324C33.0781 8.92489 33.0688 7.65911 32.7803 6.84007C32.5383 6.15133 32.0636 5.36952 31.5331 4.78317L31.1794 4.38296L31.5703 4.60633C31.7844 4.71802 32.1939 5.00654 32.4731 5.22061ZM2.04775 12.4244C3.57414 13.9787 6.52454 15.3004 10.0054 16.0077C15.6642 17.1618 22.5144 16.743 26.6654 14.9932C27.0935 14.8071 27.4565 14.6768 27.4751 14.6954C27.531 14.7512 24.7947 17.2921 23.4079 18.4834C21.0997 20.4659 18.7636 22.2715 15.5712 24.5611L13.961 25.7152L13.9145 23.5466C13.868 21.5827 13.8493 21.3594 13.6911 21.1825C13.4212 20.8847 12.8721 20.9126 12.6208 21.2291C12.4346 21.4618 12.4253 21.5921 12.4253 23.6117V25.7338L12.2206 25.6965C12.0996 25.6686 11.8017 25.6221 11.5411 25.5942C11.2898 25.5662 10.6104 25.4546 10.0334 25.3522L9.00026 25.1567L9.0468 22.9044L9.10264 20.652L8.84204 20.4473C8.51629 20.196 8.144 20.1867 7.88339 20.4286C7.61348 20.6893 7.60418 20.7637 7.55764 22.8206C7.53903 23.8072 7.5018 24.6355 7.47387 24.6634C7.39942 24.7379 6.71068 24.4773 5.69619 23.9933L4.78408 23.5559L4.84923 20.9871C4.91438 18.4369 4.91438 18.4276 4.70962 18.2414C4.43041 17.9995 3.91851 18.0088 3.6579 18.2694C3.44384 18.4741 3.41592 18.8278 3.30423 22.197L3.29492 22.5228L2.73649 21.9271C2.3642 21.5362 2.04775 21.0802 1.80576 20.5869L1.44278 19.833V15.896C1.44278 13.7274 1.48001 11.9591 1.51724 11.9591C1.55447 11.9591 1.79646 12.1731 2.04775 12.4244ZM10.0241 30.8062C10.3033 31.2716 10.9548 31.7276 11.5411 31.8859C11.7645 31.951 12.2113 31.9696 12.6766 31.9324C13.868 31.83 14.2309 32.0999 14.4264 33.2075C14.6311 34.3802 15.1151 35.0596 16.0458 35.4878C16.5112 35.7018 16.6229 35.7111 17.4419 35.6553C18.2051 35.6088 18.3913 35.6274 18.6612 35.767C19.0428 35.9717 19.3127 36.4557 19.3127 36.9118C19.3127 37.2934 19.1731 37.4144 16.716 39.1548L15.5712 39.9739L15.3106 39.7598C14.2123 38.8849 6.57107 32.3978 6.59899 32.3605C6.71999 32.2395 9.60523 30.406 9.67969 30.3967C9.73553 30.3967 9.88445 30.5829 10.0241 30.8062Z"
        fill="currentColor" />
    <path
        d="M14.7055 3.08939C11.8389 3.43375 9.85645 4.19695 8.65582 5.38828C8.27422 5.76987 7.89262 6.25385 7.77163 6.51445C7.48311 7.12873 7.41795 8.14322 7.62271 8.7668C8.19046 10.4514 10.5638 11.8847 13.691 12.4339C14.9847 12.6572 17.4791 12.7038 18.7542 12.5269C21.9093 12.0895 24.3758 10.7958 25.2413 9.1484C25.4647 8.72027 25.5019 8.54343 25.5019 7.864C25.5019 7.19388 25.4647 6.98912 25.2506 6.54237C24.4502 4.83915 22.0955 3.59198 18.8472 3.15454C17.9724 3.04285 15.4315 2.99631 14.7055 3.08939ZM17.6094 4.51339C19.5453 4.66231 20.7738 4.96945 22.1048 5.63026C24.2082 6.69129 24.627 8.05015 23.2217 9.2787C20.2992 11.8382 12.4811 11.773 9.69823 9.17632C9.13049 8.64581 8.98157 8.35729 8.98157 7.81747C8.98157 7.27765 9.13049 6.98912 9.69823 6.45861C10.8058 5.4255 12.8162 4.71815 15.1895 4.5227C15.6921 4.47616 16.1668 4.43894 16.2412 4.42963C16.3157 4.42963 16.9393 4.46686 17.6094 4.51339Z"
        fill="currentColor" />
    <path
        d="M10.5825 33.2074C10.3312 33.468 10.3126 33.9241 10.5453 34.1847C10.8245 34.5197 14.3241 37.2747 14.5381 37.3305C14.8266 37.405 15.2455 37.1816 15.3479 36.8931C15.5247 36.3812 15.3851 36.223 13.3468 34.5756C11.2061 32.8537 11.0107 32.7514 10.5825 33.2074Z"
        fill="currentColor" />
</svg>