<svg width="25" height="13" viewBox="0 0 25 13" fill="none" xmlns="http://www.w3.org/2000/svg">
    <path
        d="M11.7963 0.192545C11.0629 0.272623 10.465 0.374946 9.95118 0.499512C6.73738 1.2825 3.65437 3.44461 1.67844 6.30518C1.23001 6.9547 0.889007 7.53749 0.814268 7.77328C0.63209 8.34272 1.14592 8.92551 1.78121 8.87657C2.18761 8.84543 2.35577 8.69862 2.75283 8.0402C3.54693 6.71891 4.49052 5.62451 5.64898 4.67247C7.83045 2.88406 10.2688 1.94537 12.7399 1.94537C14.2254 1.94537 15.6454 2.27903 17.1215 2.97304C18.3827 3.56917 19.3637 4.25429 20.4895 5.32199C21.4611 6.25179 22.1104 7.04812 22.7597 8.12918C23.1007 8.68972 23.2875 8.84543 23.6799 8.87657C24.3152 8.92551 24.829 8.34272 24.6469 7.77328C24.5161 7.35509 23.75 6.2073 23.0399 5.35758C20.6857 2.55485 17.64 0.766438 14.3888 0.272623C13.9451 0.205892 12.1653 0.152506 11.7963 0.192545Z"
        fill="currentColor" />
    <path
        d="M11.9365 3.68494C11.5114 3.75612 10.792 4.0097 10.3856 4.24104C9.58686 4.69926 8.83947 5.52229 8.4938 6.33196C8.22754 6.95035 8.13878 7.46196 8.16681 8.17376C8.20418 9.05907 8.41438 9.69525 8.92355 10.4204C9.53081 11.2968 10.4557 11.933 11.5441 12.2311C11.8664 12.32 12.0159 12.3334 12.7306 12.3334C13.4453 12.3334 13.5948 12.32 13.9171 12.2311C15.0288 11.9241 15.9351 11.2924 16.5657 10.3848C17.5233 8.99234 17.5606 7.23507 16.6591 5.74917C16.3648 5.26426 15.6034 4.5391 15.0802 4.24104C14.6505 4.0008 13.9451 3.75167 13.478 3.68494C13.1183 3.6271 12.2962 3.63155 11.9365 3.68494ZM13.3005 5.46445C14.0759 5.61571 14.814 6.16736 15.155 6.85247C15.3698 7.27956 15.4399 7.56873 15.4399 8.00916C15.4399 8.71206 15.1643 9.33044 14.6224 9.84205C14.0993 10.3403 13.492 10.5761 12.7306 10.5761C11.9739 10.5761 11.3619 10.3359 10.8388 9.84205C10.1661 9.20588 9.88582 8.32057 10.0727 7.45306C10.2735 6.52771 11.1144 5.70469 12.086 5.4778C12.3989 5.40662 12.9782 5.40217 13.3005 5.46445Z"
        fill="currentColor" />
</svg>