<svg width="30" height="30" viewBox="0 0 30 30" fill="none" xmlns="http://www.w3.org/2000/svg">
    <path
        d="M13.8735 0.0173721C13.762 0.0291004 13.4158 0.0701523 13.1107 0.105339C8.46962 0.633148 4.18053 3.54196 1.82183 7.75856C0.96519 9.29507 0.343244 11.2069 0.0792101 13.1187C-0.0264034 13.8518 -0.0264034 16.139 0.0792101 16.872C0.695289 21.3408 3.07746 25.1352 6.80327 27.5807C11.3564 30.5716 17.3235 30.8062 22.1466 28.1906C22.88 27.7918 23.0501 27.6569 23.1968 27.352C23.4491 26.83 23.2848 26.2201 22.7978 25.8741C22.5866 25.7275 22.4927 25.6982 22.1876 25.6982C21.9647 25.6982 21.7593 25.7334 21.6478 25.792C20.6621 26.3257 20.2631 26.5192 19.7116 26.7421C17.8164 27.5044 15.7804 27.7977 13.7796 27.5983C8.76886 27.1057 4.52084 23.7042 2.96598 18.9481C2.0976 16.2973 2.0976 13.6935 2.96598 11.0427C4.22161 7.21316 7.20812 4.22811 11.0513 2.9731C13.6858 2.11101 16.2968 2.11101 18.943 2.97896C21.8063 3.91729 24.1826 5.7998 25.8137 8.42711C26.7642 9.96362 27.4155 11.9165 27.6033 13.8166C27.8673 16.5143 27.1925 19.3293 25.6905 21.7396C25.3619 22.2674 25.3443 22.3143 25.3443 22.6779C25.3443 23.1354 25.4969 23.4227 25.8606 23.6632C26.1892 23.8802 26.7584 23.8919 27.0928 23.6808C27.4448 23.4638 28.1607 22.3026 28.7122 21.0476C31.464 14.8312 29.7038 7.57676 24.4055 3.30738C22.2698 1.58907 19.8993 0.556908 17.1006 0.128798C16.5138 0.0408287 14.3312 -0.035408 13.8735 0.0173721Z"
        fill="currentColor" />
    <g clip-path="url(#clip0_120_462)">
        <path
            d="M14.6171 8.0164C14.0484 8.09023 13.5042 8.29257 13.0312 8.60976C12.7687 8.78476 12.2847 9.26874 12.1097 9.53124C11.8582 9.90585 11.6859 10.3023 11.5765 10.7617C11.5246 10.9723 11.5191 11.1035 11.5082 12.1207L11.4945 13.25H11.2019C11.0269 13.25 10.8437 13.2664 10.748 13.291C10.2777 13.4141 9.91401 13.7805 9.79097 14.2535C9.73081 14.4887 9.73081 20.7613 9.79097 20.9965C9.91401 21.4695 10.2777 21.8359 10.748 21.959C10.8902 21.9945 11.4152 22 15 22C19.5007 22 19.2355 22.0109 19.5691 21.8332C19.8835 21.6637 20.1542 21.2945 20.2226 20.9363C20.239 20.8406 20.25 19.6539 20.25 17.6004C20.25 14.1277 20.2554 14.2699 20.0968 13.9555C19.9984 13.7613 19.7605 13.5207 19.5691 13.4168C19.3394 13.2937 19.1343 13.25 18.798 13.25H18.5054L18.4917 12.1207C18.4808 11.1035 18.4753 10.9723 18.4234 10.7617C18.2539 10.059 17.9585 9.53124 17.4636 9.03632C16.9578 8.53046 16.4246 8.23515 15.7382 8.07929C15.5113 8.02734 14.8332 7.98905 14.6171 8.0164ZM15.4648 9.21405C15.7218 9.26874 16.0527 9.40273 16.255 9.53671C16.7855 9.88398 17.182 10.4719 17.2941 11.0762C17.3132 11.1719 17.3242 11.6367 17.3242 12.2437V13.25H15H12.6757V12.2301C12.6757 11.1199 12.6867 11.0269 12.8371 10.6387C13.1105 9.92773 13.7558 9.38358 14.5214 9.21679C14.7402 9.16757 15.2433 9.16757 15.4648 9.21405ZM15.3992 15.659C15.8039 15.8121 16.08 16.1512 16.1511 16.5832C16.214 16.9797 16.0363 17.4144 15.7109 17.6633L15.5769 17.7644L15.5687 18.5273L15.5605 19.2875L15.4785 19.4078C15.2132 19.7851 14.6417 19.7305 14.4667 19.3148C14.4339 19.2301 14.4257 19.0797 14.4257 18.4891V17.7672L14.2863 17.6633C13.9636 17.4172 13.7859 16.9797 13.8488 16.5887C13.9472 15.9707 14.4886 15.5387 15.0957 15.5933C15.1859 15.6016 15.3226 15.6316 15.3992 15.659Z"
            fill="currentColor" />
    </g>
    <defs>
        <clipPath id="clip0_120_462">
            <rect width="14" height="14" fill="white" transform="translate(8 8)" />
        </clipPath>
    </defs>
</svg>