<svg width="21" height="20" viewBox="0 0 21 20" fill="none" xmlns="http://www.w3.org/2000/svg">
    <g clip-path="url(#clip0_118_641)">
        <path
            d="M9.3489 0.0416126C7.41922 0.204216 5.42204 0.983198 3.88544 2.17436C3.4328 2.52225 2.7181 3.21048 2.36075 3.63779C1.4515 4.72307 0.705039 6.19028 0.395337 7.50623C0.20078 8.33059 0.157104 8.73521 0.157104 9.68057C0.157104 10.6259 0.20078 11.0306 0.395337 11.8549C0.70901 13.1973 1.47532 14.6872 2.41634 15.7876C2.78163 16.2187 3.50427 16.8994 3.95294 17.2397C5.09249 18.1057 6.63306 18.8166 8.0148 19.1116C8.88038 19.2968 9.30523 19.3384 10.2979 19.3384C11.2905 19.3384 11.7153 19.2968 12.5809 19.1116C13.9627 18.8166 15.5032 18.1057 16.6428 17.2397C17.0915 16.8994 17.8141 16.2187 18.1794 15.7876C19.1204 14.6872 19.8867 13.1973 20.2004 11.8549C20.7324 9.58604 20.4307 7.29069 19.3229 5.25626C17.417 1.74327 13.4902 -0.310064 9.3489 0.0416126ZM11.0721 4.36761C11.8861 4.57937 12.5968 5.14281 12.974 5.8802C13.2122 6.34154 13.244 6.50792 13.2639 7.45707L13.2837 8.31546L13.4505 8.41C13.6808 8.53857 13.9388 8.81462 14.0619 9.06798L14.1691 9.28352V11.5524V13.8213L14.0461 14.0671C13.8912 14.3809 13.6053 14.6532 13.2758 14.8007L13.0177 14.9179H10.2979H7.57804L7.31996 14.8007C6.9904 14.6532 6.70452 14.3809 6.54967 14.0671L6.42659 13.8213V11.5524V9.28352L6.53379 9.06798C6.65688 8.8184 6.94673 8.50454 7.16908 8.38731L7.31996 8.30412V7.52514C7.31996 6.86338 7.33187 6.69699 7.39937 6.44364C7.69319 5.35079 8.5548 4.56047 9.70228 4.32602C10.0279 4.26173 10.7426 4.28442 11.0721 4.36761Z"
            fill="currentColor" />
        <path
            d="M9.95246 5.25624C9.28938 5.36968 8.71763 5.76296 8.41189 6.31883C8.21734 6.67429 8.15381 6.98437 8.15381 7.62722V8.16797H10.3019H12.4539L12.4301 7.53268C12.4142 7.02975 12.3943 6.84824 12.3268 6.6516C12.1243 6.05035 11.5645 5.51338 10.9491 5.33187C10.6473 5.24489 10.2225 5.21086 9.95246 5.25624Z"
            fill="currentColor" />
        <path
            d="M10.0953 10.3612C9.83327 10.4368 9.58313 10.7356 9.58313 10.9776C9.58313 11.1062 9.68239 11.3368 9.78166 11.4389C9.84122 11.5032 9.8571 11.5902 9.86901 12.0175L9.88092 12.5242L10.0119 12.6339C10.2542 12.8419 10.6075 12.7473 10.6949 12.4486C10.7147 12.373 10.7346 12.1347 10.7346 11.9192C10.7346 11.5562 10.7425 11.5183 10.8418 11.3973C10.949 11.2612 11.0046 10.9814 10.9569 10.7999C10.9212 10.6599 10.7346 10.4709 10.5559 10.3952C10.3852 10.3196 10.2621 10.3121 10.0953 10.3612Z"
            fill="currentColor" />
    </g>
    <defs>
        <clipPath id="clip0_118_641">
            <rect width="20.3292" height="19.3611" fill="white" transform="translate(0.133301)" />
        </clipPath>
    </defs>
</svg>