<svg width="24" height="24" viewBox="0 0 24 24" fill="none" xmlns="http://www.w3.org/2000/svg">
  <path
    d="M19.3881 0.0290461C19.2613 0.0573511 19.0173 0.142266 18.8484 0.222463C18.5855 0.349835 18.3837 0.529099 17.37 1.53864L16.1968 2.70858L18.6466 5.17582L21.101 7.64307L22.279 6.4637C22.9219 5.81268 23.5461 5.16167 23.654 5.01543C24.0342 4.51537 24.1046 3.85964 23.8465 3.28411C23.7479 3.07182 23.4992 2.79349 22.4949 1.77923C21.2371 0.500795 20.8992 0.222463 20.4722 0.0950909C20.1577 0.000741482 19.6743 -0.0275636 19.3881 0.0290461Z"
    fill="currentColor" />
  <path
    d="M8.71141 10.2375L2.54004 16.441L4.98043 18.8941L7.42082 21.3472L13.6157 15.1201L19.8105 8.89301L17.3936 6.4635C16.0654 5.12845 14.9579 4.034 14.9297 4.034C14.9016 4.034 12.1045 6.82675 8.71141 10.2375Z"
    fill="currentColor" />
  <path
    d="M0.597323 20.6206C0.165562 22.5784 -0.0174672 23.4794 0.00130501 23.5879C0.0341564 23.7625 0.184334 23.9181 0.390829 23.9889C0.517541 24.0361 0.902372 23.9512 3.29583 23.3709C4.81638 23.003 6.06943 22.6916 6.08351 22.6822C6.10697 22.6633 1.2919 17.809 1.24497 17.809C1.23089 17.809 0.939917 19.0733 0.597323 20.6206Z"
    fill="currentColor" />
</svg>