<svg width="17" height="17" viewBox="0 0 17 17" fill="none" xmlns="http://www.w3.org/2000/svg">
    <g clip-path="url(#clip0_294_2938)">
        <path
            d="M7.72642 0.0366402C6.64732 0.13957 5.69107 0.415155 4.71822 0.899921C3.85494 1.32824 3.22408 1.78312 2.51021 2.48371C1.82955 3.15773 1.33814 3.8384 0.89986 4.71828C-0.139398 6.80344 -0.278851 9.1675 0.501423 11.3722C0.79361 12.189 1.37466 13.2183 1.90591 13.8624C2.70611 14.8253 3.62584 15.5558 4.71822 16.1003C6.01314 16.7445 7.39107 17.0466 8.79888 16.9902C10.0639 16.937 11.1629 16.6581 12.2819 16.1003C13.6299 15.4329 14.7489 14.4435 15.5889 13.1818C15.8778 12.7468 16.3094 11.8968 16.4854 11.4087C17.0665 9.8216 17.1495 7.99543 16.7178 6.35187C16.5551 5.7343 16.4124 5.35578 16.1036 4.73156C15.6719 3.85832 15.217 3.22414 14.5165 2.51027C12.7534 0.723944 10.21 -0.202423 7.72642 0.0366402ZM5.56822 4.0841C5.67447 4.12394 7.28482 5.71437 7.35787 5.85051C7.47076 6.06633 7.44752 6.10617 6.84322 6.72043C6.53775 7.03254 6.25884 7.33801 6.22896 7.39445C6.10279 7.64348 6.12935 7.93898 6.29869 8.19465C6.85318 9.01809 8.31412 10.4292 8.98814 10.7911C9.14088 10.8741 9.44302 10.8808 9.62232 10.8077C9.69869 10.7745 9.95767 10.5454 10.293 10.2101C10.8475 9.6589 10.9338 9.59914 11.1165 9.64562C11.2294 9.67219 12.8596 11.2859 12.936 11.4486C13.0356 11.6611 12.9227 11.8403 12.3948 12.3019C11.8303 12.7966 11.2028 13.0058 10.5586 12.9161C9.69205 12.7966 8.26763 12.0927 7.23834 11.2693C6.85318 10.9605 5.91021 10.0142 5.60474 9.62902C4.91412 8.76242 4.31646 7.65676 4.09732 6.85656C3.95787 6.34191 4.01763 5.80402 4.2733 5.27941C4.41275 4.99719 4.4692 4.92082 4.85767 4.5257C5.09341 4.28332 5.3192 4.08078 5.35904 4.07414C5.39556 4.0675 5.43873 4.05754 5.45201 4.05422C5.46529 4.05422 5.51509 4.0675 5.56822 4.0841Z"
            fill="currentColor" />
    </g>
    <defs>
        <clipPath id="clip0_294_2938">
            <rect width="17" height="17" fill="white" />
        </clipPath>
    </defs>
</svg>