<svg width="25" height="21" viewBox="0 0 25 21" fill="none" xmlns="http://www.w3.org/2000/svg">
    <path
        d="M23.7401 0.489534C24.1779 0.631229 24.5622 0.975346 24.7568 1.40549L24.8833 1.68382V10.5144V19.345L24.7568 19.6234C24.6011 19.9574 24.3384 20.2458 24.0076 20.4229L23.7644 20.5596H12.4538H1.14328L0.890312 20.4229C0.559509 20.2408 0.306541 19.9675 0.150869 19.6234L0.0243855 19.345V10.5144V1.68382L0.150869 1.40549C0.306541 1.06137 0.559509 0.788105 0.890312 0.605927L1.14328 0.469294L12.3809 0.459171C18.5591 0.454111 23.672 0.469294 23.7401 0.489534ZM1.60543 8.0449V14.0264L1.73678 13.8949C2.89459 12.7765 4.83563 10.9851 4.98644 10.9041C5.23454 10.7675 5.73561 10.7573 5.98372 10.8889C6.07615 10.9395 6.90315 11.7593 7.82259 12.7056C8.81014 13.7329 9.50093 14.4161 9.52526 14.3807C9.70525 14.1074 15.8105 6.58747 15.9273 6.49638C16.3456 6.1725 16.9732 6.18768 17.3429 6.52674C17.4402 6.61277 18.7878 8.22201 20.3445 10.1045C21.8963 11.987 23.2001 13.5609 23.2341 13.6014C23.2925 13.6621 23.3023 12.7613 23.3023 7.86778V2.06336H12.4538H1.60543V8.0449Z"
        fill="currentColor" />
    <path
        d="M6.64048 4.20898C7.21938 4.3608 7.79343 4.82131 8.05126 5.35266C8.62043 6.52164 8.16315 7.89304 7.01506 8.45476C6.70858 8.60658 6.65507 8.6167 6.12968 8.6167C5.59942 8.6167 5.55077 8.60658 5.23943 8.45476C4.35404 8.01956 3.82378 7.00745 3.97945 6.06113C4.20323 4.7454 5.42429 3.89523 6.64048 4.20898Z"
        fill="currentColor" />
</svg>