<!-- <svg width="25" height="21" viewBox="0 0 25 21" fill="none" xmlns="http://www.w3.org/2000/svg">
    <path
        d="M23.7401 0.489534C24.1779 0.631229 24.5622 0.975346 24.7568 1.40549L24.8833
1.68382V10.5144V19.345L24.7568 19.6234C24.6011 19.9574 24.3384 20.2458 24.0076 20.4229L23.7644
20.5596H12.4538H1.14328L0.890312 20.4229C0.559509 20.2408 0.306541 19.9675 0.150869
19.6234L0.0243855 19.345V10.5144V1.68382L0.150869 1.40549C0.306541 1.06137 0.559509 0.788105
0.890312 0.605927L1.14328 0.469294L12.3809 0.459171C18.5591 0.454111 23.672 0.469294 23.7401
0.489534ZM1.60543 8.0449V14.0264L1.73678 13.8949C2.89459 12.7765 4.83563 10.9851 4.98644
10.9041C5.23454 10.7675 5.73561 10.7573 5.98372 10.8889C6.07615 10.9395 6.90315 11.7593 7.82259
12.7056C8.81014 13.7329 9.50093 14.4161 9.52526 14.3807C9.70525 14.1074 15.8105 6.58747 15.9273
6.49638C16.3456 6.1725 16.9732 6.18768 17.3429 6.52674C17.4402 6.61277 18.7878 8.22201 20.3445
10.1045C21.8963 11.987 23.2001 13.5609 23.2341 13.6014C23.2925 13.6621 23.3023 12.7613 23.3023
7.86778V2.06336H12.4538H1.60543V8.0449Z"
        fill="currentColor" />
    <path
        d="M6.64048 4.20898C7.21938 4.3608 7.79343 4.82131 8.05126 5.35266C8.62043 6.52164 8.16315 7.89304
7.01506 8.45476C6.70858 8.60658 6.65507 8.6167 6.12968 8.6167C5.59942 8.6167 5.55077 8.60658
5.23943
8.45476C4.35404 8.01956 3.82378 7.00745 3.97945 6.06113C4.20323 4.7454 5.42429 3.89523 6.64048
4.20898Z"
        fill="currentColor" />
</svg> -->

<svg version="1.0" xmlns="http://www.w3.org/2000/svg"
    width="512.000000pt" height="512.000000pt" viewBox="0 0 512.000000 512.000000"
    preserveAspectRatio="xMidYMid meet">

    <g transform="translate(0.000000,512.000000) scale(0.100000,-0.100000)"
        fill="currentColor" stroke="none">
        <path
            d="M681 4784 c-169 -45 -301 -180 -346 -351 -23 -86 -23 -3020 0 -3106
46 -178 193 -320 367 -356 37 -8 364 -11 1065 -9 1004 3 1012 3 1039 24 53 39
69 71 69 134 0 63 -16 95 -69 134 -27 21 -37 21 -1046 26 -1009 5 -1019 5
-1046 26 -15 11 -37 33 -48 48 -21 27 -21 28 -21 1526 0 1498 0 1499 21 1526
11 15 33 37 48 48 27 21 28 21 1526 21 1498 0 1499 0 1526 -21 15 -11 37 -33
48 -48 21 -27 21 -37 26 -1046 5 -1009 5 -1019 26 -1046 39 -53 71 -69 134
-69 63 0 95 16 134 69 21 27 21 35 24 1039 2 701 -1 1028 -9 1065 -36 174
-178 321 -356 367 -85 22 -3030 21 -3112 -1z" />
        <path
            d="M1666 4150 c-63 -16 -153 -70 -197 -117 -22 -24 -55 -74 -72 -111
-29 -61 -32 -76 -32 -163 0 -90 2 -99 37 -171 45 -91 103 -147 196 -191 61
-29 76 -32 162 -32 86 0 101 3 162 32 93 44 151 100 196 191 35 72 37 81 37
172 0 91 -2 100 -37 172 -68 136 -188 217 -336 224 -42 2 -94 -1 -116 -6z" />
        <path
            d="M2660 3349 c-14 -5 -222 -206 -462 -447 l-438 -437 -202 202 c-172
171 -209 202 -240 208 -80 15 -104 2 -236 -128 l-122 -121 0 -513 0 -513 1280
0 1280 0 0 513 0 512 -357 357 c-197 196 -371 362 -386 368 -35 12 -83 12
-117 -1z" />
        <path
            d="M3935 1906 c-37 -17 -70 -52 -84 -89 -7 -17 -11 -127 -11 -282 l0
-254 -269 -3 c-254 -3 -271 -4 -297 -24 -53 -39 -69 -71 -69 -134 0 -63 16
-95 69 -134 26 -20 43 -21 296 -24 l269 -3 3 -269 c3 -253 4 -270 24 -296 39
-53 71 -69 134 -69 63 0 95 16 134 69 20 26 21 43 24 296 l3 269 269 3 c253 3
270 4 296 24 53 39 69 71 69 134 0 63 -16 95 -69 134 -26 20 -43 21 -296 24
l-269 3 -3 269 c-3 253 -4 270 -24 296 -11 15 -32 37 -46 47 -34 25 -113 32
-153 13z" />
    </g>
</svg>