<svg width="21" height="20" viewBox="0 0 21 20" fill="none" xmlns="http://www.w3.org/2000/svg">
    <path
        d="M7.67529 0.0585918C5.94092 0.277342 4.30029 1.08594 3.0542 2.33203C0.694822 4.6875 0.0620094 8.26172 1.46826 11.2422C2.62842 13.707 4.94873 15.4102 7.60888 15.7617C9.58545 16.0195 11.605 15.5117 13.2222 14.3516C13.4136 14.2148 13.5854 14.1016 13.6011 14.1016C13.6167 14.1016 14.9253 15.3945 16.5034 16.9687C19.5308 19.9961 19.5347 19.9961 19.8823 20C20.0542 20 20.394 19.8594 20.4956 19.7422C20.6089 19.6133 20.7222 19.3242 20.7222 19.1602C20.7222 18.8125 20.7183 18.8086 17.6909 15.7812C16.1167 14.2031 14.8237 12.8984 14.8237 12.8828C14.8237 12.8672 14.937 12.6953 15.0776 12.4961C16.0464 11.125 16.5386 9.59766 16.5425 7.9414C16.5425 5.80078 15.7222 3.82031 14.2104 2.3164C13.0151 1.1289 11.5464 0.378904 9.86279 0.0976543C9.33154 0.00781059 8.22998 -0.0117207 7.67529 0.0585918ZM9.55029 1.73828C11.3315 2.02734 12.8511 2.98828 13.8159 4.4414C14.5347 5.52344 14.8667 6.60547 14.8706 7.89062C14.8706 8.51172 14.8276 8.88672 14.687 9.45312C14.1362 11.6523 12.3745 13.4141 10.1753 13.9648C9.60888 14.1055 9.23388 14.1484 8.61279 14.1484C7.32763 14.1445 6.2456 13.8125 5.16357 13.0937C3.44092 11.9492 2.40185 10.0078 2.40185 7.91797C2.40185 6.87109 2.6167 5.98828 3.10498 5.04297C3.89404 3.51562 5.30029 2.3789 6.9917 1.89062C7.70654 1.6875 8.81201 1.62109 9.55029 1.73828Z"
        fill="currentColor" />
</svg>