<svg width="60" height="60" viewBox="0 0 60 60" fill="none" xmlns="http://www.w3.org/2000/svg">
<g clip-path="url(#clip0_185_1980)">
<path d="M27.3047 0.117188C21.5156 0.679688 16.1719 2.8125 11.4844 6.42188C9.19922 8.17969 6.23437 11.4844 4.52344 14.1797C3.78516 15.3398 2.34375 18.293 1.82812 19.6992C1.25391 21.2695 0.632812 23.6836 0.328125 25.5469C-0.0351562 27.832 -0.0351562 32.168 0.328125 34.4531C0.855469 37.6875 1.6875 40.2891 3.10547 43.1836C4.65234 46.3359 6.25781 48.5742 8.83594 51.1641C11.4258 53.7422 13.6641 55.3477 16.8164 56.8945C19.7109 58.3125 22.3125 59.1445 25.5469 59.6719C27.832 60.0352 32.168 60.0352 34.4531 59.6719C37.6875 59.1445 40.2891 58.3125 43.1836 56.8945C46.3359 55.3477 48.5742 53.7422 51.1641 51.1641C53.7422 48.5742 55.3477 46.3359 56.8945 43.1836C58.3125 40.2891 59.168 37.5938 59.6367 34.5234C59.9531 32.5078 60.0703 29.9766 59.8945 29.3203C59.4609 27.75 57.4336 27.0234 56.0977 27.9609C55.2422 28.5586 55.0664 29.0508 54.9492 31.0312C54.7969 33.8555 54.457 35.6484 53.6602 38.0039C51.7969 43.5117 47.9883 48.2461 42.8906 51.3867C36.7734 55.1602 28.9336 56.0156 21.9961 53.6602C16.4883 51.7969 11.7539 47.9883 8.61328 42.8906C4.83984 36.7734 3.98437 28.9336 6.33984 21.9961C9.09375 13.8516 16.1719 7.46484 24.4922 5.625C26.9766 5.07422 30.3047 4.88672 32.7539 5.15625C38.2031 5.76562 43.2422 8.13281 47.3086 11.9766C48.2109 12.832 48.9258 13.1719 49.6875 13.1016C51.0117 12.9727 51.9727 11.918 51.9727 10.6055C51.9609 9.70312 51.7969 9.39844 50.6602 8.29688C46.3359 4.05469 40.5937 1.26562 34.2187 0.292969C32.7891 0.0820312 28.7461 -0.0234375 27.3047 0.117188Z" fill="white"/>
<path d="M40.7226 21.3164C40.5351 21.3633 40.2187 21.4922 40.0195 21.5977C39.832 21.6914 37.2187 24.2344 34.2187 27.2344L28.7812 32.6953L26.3671 30.3164C24.9375 28.8984 23.7773 27.8438 23.5078 27.7266C23.1796 27.5742 22.8632 27.5274 22.3359 27.5625C21.5039 27.6094 20.8945 27.9609 20.414 28.6758C20.0039 29.2617 19.9218 30.3516 20.2265 31.0078C20.4375 31.4883 26.5429 37.7344 27.3046 38.2617C27.8906 38.6602 28.6289 38.8008 29.3554 38.6484C29.9296 38.5313 30.0703 38.4024 36.6562 31.8399C43.9804 24.5274 43.7929 24.75 43.6875 23.4961C43.5703 22.0664 42.0937 20.9766 40.7226 21.3164Z" fill="white"/>
</g>
<defs>
<clipPath id="clip0_185_1980">
<rect width="60" height="60" fill="white"/>
</clipPath>
</defs>
</svg>
