<?xml version="1.0" standalone="no"?>
<!DOCTYPE svg PUBLIC "-//W3C//DTD SVG 20010904//EN" "http://www.w3.org/TR/2001/REC-SVG-20010904/DTD/svg10.dtd">
<svg version="1.0" xmlns="http://www.w3.org/2000/svg"
  width="512.000000pt" height="512.000000pt" viewBox="0 0 512.000000 512.000000"
  preserveAspectRatio="xMidYMid meet">

  <g transform="translate(0.000000,512.000000) scale(0.100000,-0.100000)"
    fill="currentColor" stroke="none">
    <path
      d="M1615 4621 c-94 -23 -117 -52 -282 -348 l-147 -262 -425 -3 c-426 -3
-426 -3 -474 -27 -54 -26 -102 -84 -117 -142 -7 -24 -9 -575 -8 -1611 3 -1760
-4 -1596 75 -1673 71 -69 -17 -65 1548 -65 1530 0 1466 -2 1539 54 48 36 86
117 86 181 0 64 -38 145 -86 181 -73 56 -20 54 -1416 54 l-1288 0 0 1290 0
1290 358 0 c407 0 434 4 500 68 24 23 92 134 181 295 l143 257 758 0 758 0
143 -257 c89 -161 157 -272 181 -295 66 -64 93 -68 500 -68 l358 0 0 -660 c0
-721 -2 -701 58 -763 46 -49 100 -71 173 -72 56 0 73 4 115 30 30 19 60 49 79
79 l30 49 0 821 0 821 -27 46 c-30 51 -84 92 -143 108 -25 7 -187 11 -446 11
l-405 0 -147 263 c-147 264 -172 299 -237 333 -33 18 -79 19 -970 21 -514 0
-948 -2 -965 -6z" />
    <path
      d="M2426 3539 c-387 -44 -736 -293 -906 -643 -91 -187 -127 -359 -117
-565 10 -208 65 -386 175 -561 315 -500 959 -685 1488 -425 528 258 779 855
593 1409 -174 519 -690 848 -1233 785z m344 -489 c233 -79 406 -263 467 -500
22 -86 22 -244 0 -330 -56 -216 -219 -400 -427 -483 -183 -72 -374 -62 -560
29 -178 87 -317 259 -367 454 -22 86 -22 245 1 330 22 85 73 191 124 260 88
117 251 223 394 255 93 21 283 14 368 -15z" />
    <path
      d="M4105 1980 c-22 -11 -55 -36 -73 -57 -50 -56 -62 -113 -62 -290 l0
-153 -167 0 c-147 0 -174 -3 -213 -21 -56 -25 -86 -53 -111 -101 -45 -87 -33
-186 29 -259 60 -70 91 -79 289 -79 l171 0 4 -178 c3 -157 6 -181 25 -217 44
-84 117 -128 208 -128 91 0 163 44 208 128 20 36 22 59 25 218 l4 177 171 0
c198 0 229 9 288 79 61 70 75 160 38 241 -27 60 -54 88 -114 116 -46 22 -62
24 -217 24 l-166 0 -4 178 -3 179 -30 48 c-17 27 -50 63 -73 80 -37 25 -54 30
-115 32 -56 3 -81 -1 -112 -17z" />
  </g>
</svg>