<svg width="23" height="23" viewBox="0 0 23 23" fill="none" xmlns="http://www.w3.org/2000/svg">
    <path
        d="M10.6364 0.013319C10.5509 0.0223122 10.2855 0.0537834 10.0516 0.080761C6.49337 0.485413 3.20508 2.7155 1.39674 5.94823C0.739979 7.12622 0.263154 8.59196 0.0607278 10.0577C-0.0202426 10.6197 -0.0202426 12.3732 0.0607278 12.9352C0.533055 16.3613 2.35939 19.2703 5.21584 21.1452C8.70656 23.4382 13.2814 23.6181 16.979 21.6128C17.5413 21.3071 17.6718 21.2036 17.7842 20.9698C17.9777 20.5697 17.8517 20.1021 17.4784 19.8368C17.3164 19.7244 17.2444 19.7019 17.0105 19.7019C16.8396 19.7019 16.6821 19.7289 16.5967 19.7739C15.841 20.183 15.5351 20.3314 15.1122 20.5022C13.6592 21.0867 12.0983 21.3116 10.5644 21.1587C6.72279 20.781 3.46598 18.1732 2.27392 14.5269C1.60816 12.4946 1.60816 10.4983 2.27392 8.46607C3.23656 5.53009 5.52623 3.24155 8.47265 2.27938C10.4924 1.61844 12.4942 1.61844 14.5229 2.28387C16.7181 3.00325 18.54 4.44652 19.7905 6.46079C20.5192 7.63878 21.0186 9.13599 21.1625 10.5927C21.3649 12.661 20.8476 14.8191 19.696 16.667C19.4441 17.0717 19.4306 17.1077 19.4306 17.3864C19.4306 17.7371 19.5476 17.9574 19.8265 18.1418C20.0784 18.3081 20.5147 18.3171 20.7711 18.1553C21.041 17.9889 21.5898 17.0987 22.0127 16.1365C24.1224 11.3706 22.7729 5.80885 18.7109 2.53566C17.0735 1.21829 15.2562 0.426964 13.1104 0.0987453C12.6606 0.0313034 10.9872 -0.0271454 10.6364 0.013319Z"
        fill="currentColor" />
    <path
        d="M10.1004 5.03967C9.84266 5.10996 9.60364 5.28805 9.47008 5.51535C9.43493 5.57393 9.34822 5.79654 9.27558 6.00978L9.14436 6.39642L7.98678 6.40814C7.25099 6.41751 6.80342 6.43157 6.7589 6.44798C6.47068 6.55108 6.2176 6.76197 6.10981 6.99396C6.01374 7.19782 5.99265 7.35717 6.00202 7.86566L6.00905 8.32728L6.07466 8.39524C6.1145 8.43508 6.18714 8.47725 6.24338 8.49131C6.31602 8.51006 7.79229 8.51709 11.3049 8.51709C16.2281 8.51709 16.2632 8.51709 16.3546 8.47022C16.521 8.38587 16.5421 8.30854 16.5421 7.80473C16.5421 7.56572 16.5304 7.31499 16.5163 7.24703C16.439 6.89085 16.1883 6.60029 15.8438 6.46906C15.7149 6.4222 15.6634 6.41986 14.5526 6.40814L13.3951 6.39642L13.2709 6.02853C13.1232 5.58331 13.06 5.46146 12.8866 5.29743C12.7366 5.15449 12.6194 5.08653 12.4249 5.03732C12.2328 4.98577 10.2902 4.98811 10.1004 5.03967ZM12.3101 5.73796C12.4226 5.78483 12.4765 5.86684 12.5609 6.12226C12.6007 6.24645 12.6405 6.36362 12.6476 6.37768C12.6546 6.40111 12.3687 6.40814 11.2697 6.40814C10.1707 6.40814 9.88484 6.40111 9.89187 6.37768C9.8989 6.36362 9.93873 6.24645 9.97857 6.12226C10.0629 5.87153 10.1168 5.78483 10.2246 5.73796C10.3324 5.6911 12.1977 5.6911 12.3101 5.73796Z"
        fill="currentColor" />
    <path
        d="M6.79419 9.31405C6.79419 9.34217 6.92073 10.8911 7.07538 12.761C7.38235 16.4728 7.36126 16.2947 7.53701 16.5501C7.67995 16.761 7.88147 16.8969 8.14626 16.9649C8.26108 16.9953 8.69224 17 11.2628 17C13.3811 17 14.2786 16.993 14.3677 16.9742C14.7192 16.8992 15.0027 16.6485 15.1292 16.304C15.1784 16.1658 15.2089 15.8565 15.4643 12.7587C15.619 10.8911 15.7455 9.34217 15.7455 9.31405V9.26718H11.2699H6.79419V9.31405ZM9.32493 10.0217C9.52645 10.1248 9.51239 9.90455 9.51239 12.7821C9.51239 15.6596 9.52645 15.4394 9.32493 15.5425C9.19371 15.6081 9.12809 15.6081 8.99687 15.5401C8.79535 15.4394 8.80941 15.6596 8.80941 12.7821C8.80941 10.4084 8.81175 10.235 8.85159 10.1576C8.89611 10.0686 9.0578 9.97017 9.1609 9.97017C9.19371 9.97017 9.26869 9.9936 9.32493 10.0217ZM11.4339 10.0217C11.6354 10.1248 11.6213 9.90455 11.6213 12.7821C11.6213 15.6596 11.6354 15.4394 11.4339 15.5425C11.3027 15.6081 11.237 15.6081 11.1058 15.5401C10.9043 15.4394 10.9184 15.6596 10.9184 12.7821C10.9184 10.4084 10.9207 10.235 10.9605 10.1576C11.0051 10.0686 11.1667 9.97017 11.2699 9.97017C11.3027 9.97017 11.3776 9.9936 11.4339 10.0217ZM13.5428 10.017C13.6038 10.0475 13.653 10.0967 13.6834 10.1576C13.7303 10.249 13.7303 10.2912 13.7303 12.7868C13.7303 15.6573 13.7444 15.4394 13.5428 15.5425C13.4116 15.6081 13.346 15.6081 13.2148 15.5425C13.0132 15.4394 13.0273 15.6573 13.0273 12.7868C13.0273 10.2912 13.0273 10.249 13.0742 10.1576C13.1609 9.98657 13.3647 9.92564 13.5428 10.017Z"
        fill="currentColor" />
</svg>