<svg width="22" height="25" viewBox="0 0 22 25" fill="none" xmlns="http://www.w3.org/2000/svg">
    <path
        d="M8.54257 0.083031C8.00557 0.229487 7.50762 0.600507 7.22935 1.07405C7.15613 1.19609 6.9755 1.65987 6.82416 2.10412L6.55078 2.90962L4.13914 2.93403C2.60624 2.95356 1.67381 2.98285 1.58105 3.01702C0.980585 3.23182 0.453346 3.67119 0.22878 4.15449C0.0286246 4.57922 -0.0153121 4.91118 0.00421534 5.97054L0.0188609 6.93227L0.155553 7.07384C0.238544 7.15683 0.389882 7.24471 0.507046 7.274C0.658383 7.31305 3.73395 7.3277 11.0518 7.3277C21.3086 7.3277 21.3818 7.3277 21.5722 7.23006C21.9188 7.05431 21.9628 6.89321 21.9628 5.84362C21.9628 5.34567 21.9384 4.82331 21.9091 4.68173C21.748 3.93969 21.2256 3.33434 20.508 3.06096C20.2395 2.96332 20.1321 2.95844 17.8181 2.93403L15.4065 2.90962L15.1477 2.14317C14.8402 1.21562 14.7084 0.961764 14.3471 0.620035C14.0347 0.322242 13.7906 0.180668 13.3854 0.0781492C12.9851 -0.0292516 8.938 -0.0243697 8.54257 0.083031ZM13.1462 1.53782C13.3805 1.63546 13.4928 1.80632 13.6685 2.33845C13.7515 2.59718 13.8345 2.84128 13.8491 2.87057C13.8638 2.91939 13.2682 2.93403 10.9786 2.93403C8.68903 2.93403 8.09344 2.91939 8.10809 2.87057C8.12273 2.84128 8.20573 2.59718 8.28872 2.33845C8.46446 1.81609 8.57675 1.63546 8.80131 1.53782C9.02588 1.44019 12.9118 1.44019 13.1462 1.53782Z"
        fill="currentColor" />
    <path
        d="M1.6543 8.98753C1.6543 9.04611 1.91792 12.273 2.24012 16.1687C2.87964 23.9016 2.8357 23.5306 3.20184 24.0627C3.49964 24.5021 3.91948 24.7852 4.47112 24.9268C4.71034 24.9902 5.6086 25 10.964 25C15.3772 25 17.2469 24.9854 17.4324 24.9463C18.1647 24.7901 18.7554 24.2677 19.019 23.5501C19.1216 23.2621 19.185 22.6177 19.7171 16.1638C20.0393 12.273 20.303 9.04611 20.303 8.98753V8.88989H10.9786H1.6543V8.98753ZM6.9267 10.4618C7.34654 10.6766 7.31724 10.2178 7.31724 16.2127C7.31724 22.2076 7.34654 21.7487 6.9267 21.9635C6.65331 22.1002 6.51662 22.1002 6.24324 21.9586C5.8234 21.7487 5.85269 22.2076 5.85269 16.2127C5.85269 11.2674 5.85757 10.9061 5.94056 10.745C6.03332 10.5595 6.37016 10.3544 6.58497 10.3544C6.65331 10.3544 6.80953 10.4033 6.9267 10.4618ZM11.3204 10.4618C11.7402 10.6766 11.7109 10.2178 11.7109 16.2127C11.7109 22.2076 11.7402 21.7487 11.3204 21.9635C11.047 22.1002 10.9103 22.1002 10.6369 21.9586C10.2171 21.7487 10.2464 22.2076 10.2464 16.2127C10.2464 11.2674 10.2512 10.9061 10.3342 10.745C10.427 10.5595 10.7638 10.3544 10.9786 10.3544C11.047 10.3544 11.2032 10.4033 11.3204 10.4618ZM15.714 10.4521C15.841 10.5155 15.9435 10.6181 16.0069 10.745C16.1046 10.9354 16.1046 11.0233 16.1046 16.2224C16.1046 22.2027 16.1339 21.7487 15.714 21.9635C15.4406 22.1002 15.304 22.1002 15.0306 21.9635C14.6107 21.7487 14.64 22.2027 14.64 16.2224C14.64 11.0233 14.64 10.9354 14.7377 10.745C14.9183 10.3886 15.343 10.2617 15.714 10.4521Z"
        fill="currentColor" />
</svg>