<svg width="16" height="14" viewBox="0 0 16 14" fill="none" xmlns="http://www.w3.org/2000/svg">
  <path
    d="M7.20625 0.190558C6.3375 0.315558 5.6125 0.537433 4.85938 0.906183C4.05 1.29993 3.54375 1.67181 2.90938 2.33431L2.50938 2.74681L2.40938 2.31868C2.20938 1.47181 2.16563 1.38431 1.89688 1.25306C1.47188 1.04681 0.9375 1.37493 0.9375 1.84056C0.9375 1.87806 1.1 2.58118 1.29688 3.39993C1.68438 5.00618 1.6875 5.00931 1.93438 5.17806C2.14375 5.31868 2.1875 5.31556 3.76875 4.93743C4.575 4.74368 5.28438 4.56243 5.34375 4.53118C5.74688 4.32493 5.80625 3.77181 5.46563 3.44681C5.24063 3.23431 5.12813 3.23431 4.2875 3.43743C3.93125 3.52493 3.62188 3.59056 3.6 3.58743C3.54063 3.57493 4.10313 2.98743 4.4 2.74681C5.55938 1.80931 6.925 1.37493 8.4 1.47181C9.99063 1.57493 11.4938 2.37181 12.475 3.62493C13.1063 4.43743 13.4875 5.33118 13.6406 6.37493C13.6969 6.75618 13.7375 6.86868 13.8688 6.99056C14.1531 7.25618 14.6875 7.19056 14.9 6.86556C14.9781 6.74993 14.9844 6.71243 14.9813 6.45618C14.9719 5.85618 14.6906 4.84681 14.3281 4.10931C13.6313 2.69056 12.5219 1.59681 11.0781 0.903058C10.1906 0.474933 9.20313 0.215558 8.30625 0.171808C8.1125 0.162433 7.875 0.149933 7.78125 0.143683C7.6875 0.137433 7.42813 0.159308 7.20625 0.190558Z"
    fill="currentColor" />
  <path
    d="M1.49381 6.85604C1.29693 6.90916 1.14693 7.03104 1.06256 7.20604C1.00006 7.33104 0.993809 7.38104 1.00943 7.60604C1.09381 8.80291 1.72193 10.2842 2.57818 11.3092C2.83131 11.6185 3.42506 12.1873 3.71881 12.4123C4.96568 13.356 6.42818 13.8498 7.98443 13.8467C8.70943 13.8467 9.10631 13.7967 9.76881 13.6248C11.0938 13.2842 12.3751 12.4842 13.2844 11.431L13.4657 11.2185L13.4969 11.3373C13.5157 11.3998 13.5844 11.6842 13.6563 11.9685C13.7938 12.5342 13.8563 12.6467 14.0751 12.7592C14.2532 12.8529 14.5157 12.8404 14.7126 12.7342C14.8969 12.6342 14.9844 12.5248 15.0376 12.331C15.0719 12.1967 15.0626 12.1342 14.8626 11.2904C14.4188 9.42479 14.3251 9.07479 14.2501 8.97479C14.1501 8.84041 13.9001 8.71854 13.7219 8.71854C13.5938 8.71854 10.8501 9.35604 10.6532 9.43104C10.4032 9.52791 10.2657 9.77791 10.2876 10.0935C10.3032 10.306 10.4126 10.4967 10.5907 10.6154C10.7782 10.7435 10.8907 10.7373 11.6688 10.5467C12.0626 10.4529 12.3907 10.381 12.4001 10.3904C12.4251 10.4154 12.0188 10.8498 11.7344 11.1029C9.66568 12.9154 6.62818 12.9998 4.45318 11.2998C4.31568 11.1904 4.05631 10.9498 3.87506 10.7592C3.03756 9.89041 2.54693 8.88104 2.34693 7.62791C2.27506 7.18416 2.20631 7.04979 1.99381 6.92791C1.82193 6.83104 1.67818 6.80916 1.49381 6.85604Z"
    fill="currentColor" />
</svg>