<svg width="42" height="42" viewBox="0 0 42 42" fill="none" xmlns="http://www.w3.org/2000/svg">
<g clip-path="url(#clip0_226_578)">
<path d="M19.5234 0.0492439C19.3675 0.0656509 18.8836 0.123074 18.457 0.172291C14.9297 0.56604 11.3039 2.0344 8.30154 4.28206C7.32537 5.01213 5.52068 6.7594 4.71677 7.75198C2.77263 10.1473 1.18943 13.3711 0.541382 16.2832C0.139429 18.0715 0.0491943 18.9492 0.0491943 21C0.0491943 23.0508 0.139429 23.9285 0.541382 25.7168C1.18943 28.6289 2.77263 31.861 4.71677 34.2481C5.47146 35.1832 6.96443 36.6598 7.89138 37.3981C10.2457 39.2766 13.4285 40.8188 16.2832 41.4586C17.9976 41.8442 19.023 41.9508 21 41.9508C24.4863 41.9508 27.1605 41.3356 30.2285 39.8262C33.6492 38.1528 36.3808 35.7574 38.5136 32.5664C39.7687 30.6961 40.9746 27.8989 41.4586 25.7168C41.8605 23.9285 41.9507 23.0508 41.9507 21C41.9507 18.9492 41.8605 18.0715 41.4586 16.2832C40.8105 13.3711 39.2273 10.1391 37.2832 7.75198C36.5285 6.81682 35.0355 5.34026 34.1086 4.60198C31.2539 2.32151 27.7347 0.787525 24.1008 0.237915C23.0672 0.082058 20.2371 -0.0327873 19.5234 0.0492439ZM22.4355 6.43948C24.6422 6.90706 26.4715 8.41643 27.382 10.5164C27.7593 11.4024 27.907 12.1817 27.907 13.2891C27.8988 15.225 27.1851 16.8739 25.766 18.2274C25.0113 18.9574 24.1992 19.4578 23.2722 19.7778C19.0476 21.2297 14.5687 18.375 14.1093 13.9289C13.7484 10.4262 16.0945 7.18596 19.5316 6.43948C20.2289 6.29182 21.7218 6.29182 22.4355 6.43948ZM26.7832 23.7727C28.9078 24.3633 30.5074 25.7004 31.4097 27.661C32.23 29.4246 32.2711 31.1309 31.5246 32.2219C30.9093 33.116 28.7191 34.5762 26.7832 35.3801C23.3215 36.8074 18.9492 36.8403 15.4218 35.4621C13.4941 34.7074 10.9922 33.075 10.4426 32.2137C9.80271 31.2047 9.7699 29.884 10.3277 28.2434C11.1562 25.8317 13.3711 24.0188 15.9551 23.6332C16.2258 23.5922 18.6293 23.5676 21.2871 23.5758C26.0121 23.5922 26.1433 23.5922 26.7832 23.7727Z" fill="#A6A6A6"/>
</g>
<defs>
<clipPath id="clip0_226_578">
<rect width="42" height="42" fill="white"/>
</clipPath>
</defs>
</svg>
