<svg width="30" height="30" viewBox="0 0 30 30" fill="none" xmlns="http://www.w3.org/2000/svg">
<path d="M13.8735 0.0173721C13.762 0.0291004 13.4158 0.0701523 13.1107 0.105339C8.46962 0.633148 4.18053 3.54196 1.82183 7.75856C0.96519 9.29507 0.343244 11.2069 0.0792101 13.1187C-0.0264034 13.8518 -0.0264034 16.139 0.0792101 16.872C0.695289 21.3408 3.07746 25.1352 6.80327 27.5807C11.3564 30.5716 17.3235 30.8062 22.1466 28.1906C22.88 27.7918 23.0501 27.6569 23.1968 27.352C23.4491 26.83 23.2848 26.2201 22.7978 25.8741C22.5866 25.7275 22.4927 25.6982 22.1876 25.6982C21.9647 25.6982 21.7593 25.7334 21.6478 25.792C20.6621 26.3257 20.2631 26.5192 19.7116 26.7421C17.8164 27.5044 15.7804 27.7977 13.7796 27.5983C8.76885 27.1057 4.52084 23.7042 2.96598 18.9481C2.0976 16.2973 2.0976 13.6935 2.96598 11.0427C4.22161 7.21316 7.20812 4.22811 11.0513 2.9731C13.6858 2.11101 16.2967 2.11101 18.943 2.97896C21.8063 3.91729 24.1826 5.7998 25.8137 8.42711C26.7642 9.96362 27.4155 11.9165 27.6033 13.8166C27.8673 16.5143 27.1925 19.3293 25.6905 21.7396C25.3619 22.2674 25.3443 22.3143 25.3443 22.6779C25.3443 23.1354 25.4969 23.4227 25.8606 23.6632C26.1892 23.8802 26.7584 23.8919 27.0928 23.6808C27.4448 23.4638 28.1607 22.3026 28.7122 21.0476C31.464 14.8312 29.7038 7.57676 24.4055 3.30738C22.2698 1.58907 19.8993 0.55691 17.1006 0.128798C16.5138 0.0408306 14.3312 -0.0354099 13.8735 0.0173721Z" fill="currentColor"/>
<path d="M15.1091 8.46486C14.2305 8.61525 13.4663 9.23048 13.1007 10.0891C13.0499 10.2012 12.9788 10.4145 12.9432 10.5621C12.8798 10.8028 12.8721 10.8738 12.8747 11.2676C12.8747 11.7625 12.9153 11.9977 13.0702 12.3942C13.2403 12.8262 13.5755 13.2774 13.9512 13.5809C14.1366 13.7285 14.553 13.9445 14.7866 14.0129C15.7032 14.2836 16.6731 14.0102 17.3434 13.291C17.7928 12.8098 18.0544 12.2164 18.1128 11.552C18.2346 10.1574 17.4044 8.88048 16.1475 8.53048C15.8632 8.45119 15.3731 8.42111 15.1091 8.46486Z" fill="currentColor"/>
<path d="M14.8145 14.579C13.6059 14.6692 12.5192 14.9098 11.5061 15.3118C11.1785 15.4403 10.9957 15.5469 10.7926 15.7274C10.361 16.1129 10.102 16.6735 10.074 17.286C10.0487 17.8137 10.1553 18.1993 10.4549 18.686C11.2598 19.9821 12.5674 20.9719 13.9893 21.3575C14.5453 21.5079 14.8576 21.5461 15.4873 21.5461C16.1069 21.5461 16.4192 21.5079 16.9371 21.3739C17.7649 21.1524 18.6078 20.7094 19.268 20.1461C19.8774 19.6266 20.5629 18.7379 20.7584 18.2239C20.9133 17.811 20.9514 17.2586 20.8473 16.8458C20.7863 16.5997 20.5985 16.2114 20.4436 16.009C20.1694 15.6536 19.8647 15.4594 19.1842 15.2079C18.4403 14.9317 17.5744 14.7293 16.7188 14.6309C16.3709 14.5899 15.1242 14.5571 14.8145 14.579Z" fill="currentColor"/>
</svg>
