<svg width="70" height="53" viewBox="0 0 70 53" fill="none" xmlns="http://www.w3.org/2000/svg">
<path d="M63.4475 4.47408L63.4498 4.47515C64.4514 4.93836 64.9973 5.47386 65.4576 6.41921L65.4582 6.42045L65.8656 7.24756V26.5008V45.7541L65.4582 46.5812L65.4576 46.5824C64.9973 47.5278 64.4514 48.0633 63.4498 48.5265L63.4475 48.5275L62.7779 48.8441H35.0205H7.26568L6.4385 48.4367L6.43726 48.4361C5.49183 47.9758 4.95629 47.43 4.49304 46.4284L4.49199 46.4261L4.49198 46.4261L4.17544 45.7566V26.5008V7.24503L4.49177 6.57592L63.4475 4.47408ZM63.4475 4.47408L62.7778 4.15749L35.286 4.13099C35.2859 4.13099 35.2859 4.13099 35.2859 4.13099C24.5078 4.12436 17.5858 4.12768 13.2985 4.14925C11.1546 4.16004 9.67123 4.17539 8.69453 4.19629C8.2059 4.20675 7.84642 4.21855 7.59542 4.23172C7.46976 4.23831 7.37381 4.24512 7.30369 4.25198C7.26866 4.25541 7.24195 4.25867 7.22234 4.26162C7.20357 4.26443 7.19608 4.26626 7.19607 4.26624L7.19289 4.26709M63.4475 4.47408L7.19289 4.26709M7.19289 4.26709C5.93013 4.60133 5.08131 5.33446 4.49198 6.57548L7.19289 4.26709ZM0.926555 6.39417L0.927387 6.39069C1.55133 3.78421 3.78835 1.53423 6.43409 0.896717C6.53487 0.872139 6.71796 0.856655 6.96894 0.843578C7.23182 0.82988 7.59913 0.817822 8.08992 0.80711C9.07199 0.785683 10.5574 0.769485 12.7092 0.757034C17.0133 0.732128 23.9903 0.722168 34.9539 0.71553C36.7566 0.714745 38.4459 0.713821 40.0294 0.712955C51.848 0.706493 57.7707 0.703255 60.8908 0.785358C62.6544 0.831764 63.5475 0.905594 64.1097 1.02876C64.5621 1.12785 64.8131 1.26489 65.0884 1.41523C65.1659 1.45757 65.2454 1.50097 65.3319 1.54485C67.1415 2.46353 68.7525 4.58601 69.169 6.62631L69.1692 6.62746C69.1803 6.68296 69.1871 6.77179 69.1926 6.86739C69.1987 6.97147 69.2044 7.10831 69.2099 7.27467C69.2209 7.60773 69.231 8.06549 69.2404 8.62926C69.2591 9.75713 69.2746 11.3141 69.2871 13.1564C69.312 16.8414 69.3244 21.6713 69.3244 26.5008C69.3244 31.3303 69.312 36.1602 69.2871 39.8452C69.2746 41.6875 69.2591 43.2445 69.2404 44.3724C69.231 44.9361 69.2209 45.3939 69.2099 45.7269C69.2044 45.8933 69.1987 46.0301 69.1926 46.1342C69.1871 46.2298 69.1803 46.3186 69.1692 46.3741L69.169 46.3753C68.7525 48.4156 67.1415 50.5381 65.3319 51.4567C65.2459 51.5004 65.1668 51.5435 65.0897 51.5856C64.813 51.7363 64.5613 51.8736 64.1077 51.973C63.5452 52.0964 62.6529 52.1707 60.8943 52.2179C57.7769 52.3016 51.8592 52.301 40.0457 52.2997C38.4887 52.2995 36.8293 52.2994 35.0604 52.2994C25.2852 52.2994 18.3184 52.2894 13.7338 52.2662C11.4416 52.2545 9.74397 52.2396 8.58821 52.2209C8.01053 52.2115 7.56676 52.2012 7.25124 52.1899C7.09365 52.1842 6.96622 52.1782 6.86925 52.1718C6.77987 52.1659 6.69674 52.1586 6.641 52.1465L6.7044 51.8533L6.64362 52.1471C6.22674 52.0608 5.43353 51.7719 4.87511 51.4998C2.97157 50.6097 1.41247 48.662 0.927198 46.6101L0.927186 46.6101L0.926576 46.6074C0.900995 46.4947 0.883531 46.2405 0.868102 45.9067C0.85197 45.5576 0.83707 45.0855 0.823354 44.509C0.795911 43.3556 0.773067 41.7783 0.754801 39.9191C0.718264 36.2005 0.7 31.3504 0.7 26.5008C0.7 21.6512 0.718264 16.8011 0.754801 13.0825C0.773067 11.2233 0.795911 9.64601 0.823354 8.49263C0.83707 7.91615 0.85197 7.44401 0.868102 7.09494C0.883531 6.7611 0.900995 6.50695 0.926555 6.39417Z" fill="white" stroke="white" stroke-width="0.6"/>
<path d="M15.2037 17.9446L15.2038 17.944C15.8145 15.0267 18.2686 12.7227 21.2384 12.2752C24.2661 11.8137 27.3844 13.4685 28.7275 16.263L28.7276 16.2633C29.3099 17.482 29.5003 18.4497 29.4328 19.8677L29.4327 19.8689C29.2292 23.5186 26.3786 26.3667 22.6786 26.6107L22.6786 26.6107C19.5688 26.8143 16.5469 24.807 15.4621 21.8377L15.4621 21.8377L15.4617 21.8366C15.2826 21.3337 15.1649 20.6245 15.118 19.9153C15.071 19.2059 15.0937 18.4807 15.2037 17.9446ZM24.0353 15.7313L24.0352 15.7313L24.0328 15.73C23.6379 15.5202 23.2401 15.4417 22.4644 15.4154L22.4632 15.4154C21.8412 15.3889 21.4446 15.4033 21.0984 15.4907C20.7547 15.5773 20.4496 15.7388 20.0162 16.0276C17.7855 17.5277 17.5564 20.5993 19.529 22.3924L19.5291 22.3926C21.1321 23.8543 23.4086 23.8543 25.0115 22.3926L25.0119 22.3922C25.4923 21.9572 25.809 21.5458 26.009 21.0797C26.2093 20.6129 26.2974 20.0802 26.304 19.395C26.304 18.9446 26.2904 18.6624 26.2406 18.4162C26.1912 18.1728 26.1049 17.9573 25.9479 17.6434C25.5506 16.8489 24.87 16.1551 24.0353 15.7313Z" fill="white" stroke="white" stroke-width="0.3"/>
<path d="M41.3817 17.9363L41.3816 17.9363L41.3791 17.9349C40.479 17.4628 40.2885 16.2135 41.0106 15.4915L41.3958 15.1063L41.4397 15.0624H41.5019H50.4801C53.6412 15.0624 55.9067 15.0724 57.4121 15.0956C58.1646 15.1072 58.7285 15.1222 59.1199 15.141C59.3154 15.1504 59.4697 15.1608 59.5836 15.1725C59.6405 15.1783 59.6892 15.1846 59.7289 15.1916C59.7653 15.198 59.8054 15.2069 59.8381 15.2214L59.8381 15.2214L59.8406 15.2226C60.2969 15.4355 60.5558 15.8933 60.6118 16.3702C60.6679 16.8476 60.5244 17.3689 60.1456 17.7254L60.1446 17.7264L59.7992 18.0451L59.7564 18.0846L59.6982 18.0849L50.7864 18.1247C50.7863 18.1247 50.7863 18.1247 50.7863 18.1247C46.7495 18.1447 44.5061 18.148 43.2255 18.1231C42.5859 18.1106 42.1818 18.091 41.913 18.0623C41.6438 18.0335 41.4979 17.9944 41.3817 17.9363Z" fill="white" stroke="white" stroke-width="0.3"/>
<path d="M41.2896 26.5993L41.2896 26.5993L41.292 26.5979C41.402 26.5319 41.5398 26.4905 41.7988 26.4607C42.0574 26.431 42.4526 26.4114 43.0878 26.3989C44.36 26.374 46.6167 26.3773 50.7197 26.3906C50.7198 26.3906 50.7198 26.3906 50.7198 26.3906L59.698 26.4172L59.7564 26.4173L59.7993 26.4569L60.1446 26.7757L60.1457 26.7767C60.5245 27.1331 60.668 27.6545 60.6119 28.1318C60.5559 28.6087 60.297 29.0666 59.8407 29.2795L59.8407 29.2795L59.8382 29.2807C59.8054 29.2952 59.7654 29.304 59.729 29.3105C59.6893 29.3175 59.6406 29.3238 59.5837 29.3296C59.4697 29.3412 59.3155 29.3517 59.12 29.3611C58.7286 29.3799 58.1647 29.3948 57.4122 29.4065C55.9068 29.4297 53.6413 29.4397 50.4802 29.4397H41.502H41.4398L41.3959 29.3957L41.0107 29.0106C40.3174 28.3173 40.4652 27.1146 41.2896 26.5993Z" fill="white" stroke="white" stroke-width="0.3"/>
<path d="M34.6487 34.177C33.8518 31.999 32.3111 30.4584 30.0799 29.6616L22.7352 29.3429L22.7355 29.1929C25.9344 29.1995 27.5689 29.2061 28.506 29.2478C28.9751 29.2687 29.2755 29.2985 29.5127 29.343C29.752 29.3878 29.9231 29.4468 30.13 29.5202L30.1303 29.5203C32.4034 30.3321 33.9772 31.9053 34.7894 34.1251M34.6487 34.177L34.7893 34.1249C34.7894 34.125 34.7894 34.125 34.7894 34.1251M34.6487 34.177L34.7896 34.1254C34.7895 34.1253 34.7895 34.1252 34.7894 34.1251M34.6487 34.177C35.0471 35.2527 35.1667 39.2501 34.8213 39.9009C34.5292 40.4852 33.8252 40.7774 33.2276 40.5782L29.4432 32.6177M34.7894 34.1251C34.8958 34.4124 34.9794 34.8795 35.0413 35.4164C35.1037 35.9576 35.1455 36.5828 35.1639 37.1938C35.1822 37.8045 35.1773 38.4038 35.1458 38.8929C35.13 39.1373 35.1075 39.3565 35.0774 39.5369C35.0481 39.712 35.0095 39.8654 34.9548 39.9694C34.6296 40.6178 33.8503 40.9434 33.1808 40.7207C32.9655 40.6511 32.7793 40.582 32.63 40.4725C32.4737 40.3578 32.3669 40.2062 32.2922 39.9896C32.2195 39.7788 32.176 39.5029 32.1443 39.1343C32.1124 38.7641 32.0915 38.2891 32.0683 37.6754L32.0683 37.6747C32.035 36.669 32.0118 36.1102 31.9583 35.7161C31.9061 35.3316 31.8254 35.1072 31.6703 34.7712C31.2202 33.8071 30.3453 32.9611 29.4432 32.6177M15.4084 29.2874C15.4086 29.2874 15.4087 29.2874 15.4089 29.2874L15.4304 29.4358L15.4079 29.2875C15.4081 29.2875 15.4082 29.2875 15.4084 29.2874ZM15.4084 29.2874C14.8818 29.3637 14.1822 29.6167 13.5176 29.9365C12.852 30.2567 12.2042 30.6521 11.7848 31.0234M15.4084 29.2874L11.7848 31.0234M11.8842 31.1357C11.1006 31.8263 10.3569 32.9552 9.93184 34.0707C9.65293 34.8277 9.59981 35.2128 9.54668 37.2049L11.8842 31.1357ZM11.8842 31.1357L11.785 31.0232C11.785 31.0233 11.7849 31.0233 11.7848 31.0234M11.8842 31.1357L11.7848 31.0234C11.7848 31.0234 11.7848 31.0234 11.7848 31.0234M12.4591 37.6746C12.4392 38.2883 12.4209 38.7633 12.3909 39.1336C12.361 39.5022 12.3188 39.7781 12.247 39.9891C12.1732 40.2058 12.0668 40.3576 11.9106 40.4724C11.7615 40.582 11.5751 40.6511 11.3599 40.7207C10.6906 40.9434 9.91139 40.6179 9.58613 39.9698C9.47407 39.7601 9.41443 39.5483 9.38869 39.1502C9.36326 38.7569 9.37022 38.1687 9.39673 37.2009L29.4955 32.4771C28.765 32.2115 28.5658 32.2115 22.0844 32.238L22.0853 32.388M12.4591 37.6746L12.3092 37.6697L12.4591 37.6747C12.4591 37.6746 12.4591 37.6746 12.4591 37.6746ZM12.4591 37.6746C12.4924 36.6627 12.5189 36.1042 12.5755 35.7142C12.6308 35.3336 12.7144 35.1159 12.87 34.7853L12.8703 34.7846C13.2813 33.8984 14.0009 33.1537 14.8461 32.731L14.8456 32.7313L14.7796 32.5966L14.8467 32.7308L15.4656 32.4276L22.085 32.388C22.0851 32.388 22.0852 32.388 22.0853 32.388M22.0853 32.388C25.3276 32.3747 26.994 32.3681 27.9418 32.3979C28.4155 32.4128 28.7035 32.4366 28.9162 32.4719C29.1252 32.5066 29.2646 32.5527 29.4432 32.6177M22.0853 32.388L29.4432 32.6177" fill="white" stroke="white" stroke-width="0.3"/>
<path d="M41.5213 37.8378L41.5213 37.8378L41.5229 37.8371C41.5615 37.8206 41.6138 37.8105 41.6634 37.8028C41.7179 37.7943 41.7862 37.7865 41.8664 37.7791C42.027 37.7642 42.2422 37.7506 42.5031 37.7381C43.0253 37.7131 43.7365 37.6923 44.573 37.6757C46.2463 37.6425 48.4251 37.6259 50.6047 37.6259C52.7843 37.6259 54.9656 37.6425 56.6439 37.6757C57.4829 37.6923 58.1972 37.7131 58.723 37.7381C58.9858 37.7506 59.203 37.7642 59.3657 37.779C59.447 37.7864 59.5163 37.7943 59.5717 37.8027C59.623 37.8105 59.6749 37.8205 59.7134 37.8358L59.7134 37.8358L59.7168 37.8372C59.9814 37.9506 60.2179 38.1685 60.3878 38.4188C60.5574 38.6687 60.671 38.9665 60.671 39.25C60.671 39.5335 60.5574 39.8314 60.3878 40.0813C60.2179 40.3315 59.9814 40.5494 59.7168 40.6628L59.7168 40.6628L59.7158 40.6633C59.6768 40.6796 59.6243 40.6902 59.573 40.6984C59.5175 40.7073 59.4482 40.7155 59.3672 40.7233C59.2047 40.7389 58.9881 40.7532 58.7262 40.7663C58.202 40.7925 57.49 40.8144 56.6538 40.8318C54.981 40.8667 52.8067 40.8841 50.6329 40.8841C48.4591 40.8841 46.2848 40.8667 44.612 40.8318C43.7758 40.8144 43.0639 40.7925 42.5396 40.7663C42.2777 40.7532 42.0611 40.7389 41.8987 40.7233C41.8176 40.7155 41.7483 40.7073 41.6928 40.6984C41.6415 40.6902 41.5891 40.6796 41.5501 40.6633L41.6081 40.525L41.5502 40.6633C41.2431 40.5348 40.9991 40.349 40.8322 40.1072C40.6651 39.8649 40.5816 39.5753 40.5816 39.25C40.5816 38.6035 40.9247 38.0996 41.5213 37.8378Z" fill="white" stroke="white" stroke-width="0.3"/>
</svg>
