<svg width="16" height="16" viewBox="0 0 16 16" fill="none" xmlns="http://www.w3.org/2000/svg">
    <path
        d="M0.552144 1.30705C0.344303 1.68376 0.370283 2.52812 0.584618 2.91132C0.688539 3.10617 1.6563 4.12589 3.11119 5.58078L5.46239 7.93198L2.99427 10.4391L0.526162 12.9461L0.435232 13.3878C0.292341 14.0633 0.448222 14.5439 0.961329 15.057C1.31206 15.4078 1.46145 15.4922 1.82517 15.5701C2.06548 15.6156 2.4422 15.6156 2.66303 15.5636L3.06572 15.4727L5.56631 13.0111L8.0669 10.5495L10.5675 13.0111L13.0681 15.4727L13.4708 15.5636C13.6916 15.6156 14.0683 15.6156 14.3086 15.5701C14.6788 15.4987 14.8217 15.4078 15.179 15.0505C15.5362 14.6933 15.6271 14.5504 15.6986 14.1802C15.744 13.9399 15.744 13.5632 15.6921 13.3423L15.6011 12.9397L13.1395 10.4391L10.6779 7.93848L13.146 5.43139L15.6076 2.93081L15.6986 2.48914C15.8414 1.81366 15.6856 1.33303 15.1725 0.819921C14.8217 0.46919 14.6723 0.384754 14.3086 0.306814C14.0683 0.261348 13.6916 0.261348 13.4708 0.313308L13.0681 0.404239L10.5675 2.86586L8.0669 5.32747L5.56631 2.86586L3.06572 0.40424L2.66303 0.313308C1.86414 0.124952 0.94834 0.560121 0.552144 1.30705Z"
        fill="currentColor" />
</svg>