<svg width="60" height="60" viewBox="0 0 60 60" fill="none" xmlns="http://www.w3.org/2000/svg">
    <g clip-path="url(#clip0_185_1613)">
        <path
            d="M27.3047 0.117188C21.5156 0.679688 16.1719 2.8125 11.4844 6.42188C9.19922 8.17969 6.23438 11.4844 4.52344 14.1797C3.78516 15.3398 2.34375 18.293 1.82812 19.6992C1.25391 21.2695 0.632812 23.6836 0.328125 25.5469C-0.0351562 27.832 -0.0351562 32.168 0.328125 34.4531C0.855469 37.6875 1.6875 40.2891 3.10547 43.1836C4.65234 46.3359 6.25781 48.5742 8.83594 51.1641C11.4258 53.7422 13.6641 55.3477 16.8164 56.8945C19.7109 58.3125 22.3125 59.1445 25.5469 59.6719C27.832 60.0352 32.168 60.0352 34.4531 59.6719C37.6875 59.1445 40.2891 58.3125 43.1836 56.8945C46.3359 55.3477 48.5742 53.7422 51.1641 51.1641C53.7422 48.5742 55.3477 46.3359 56.8945 43.1836C58.3125 40.2891 59.168 37.5938 59.6367 34.5234C59.9531 32.5078 60.0703 29.9766 59.8945 29.3203C59.4609 27.75 57.4336 27.0234 56.0977 27.9609C55.2422 28.5586 55.0664 29.0508 54.9492 31.0312C54.7969 33.8555 54.457 35.6484 53.6602 38.0039C51.7969 43.5117 47.9883 48.2461 42.8906 51.3867C36.7734 55.1602 28.9336 56.0156 21.9961 53.6602C16.4883 51.7969 11.7539 47.9883 8.61328 42.8906C4.83984 36.7734 3.98438 28.9336 6.33984 21.9961C9.09375 13.8516 16.1719 7.46484 24.4922 5.625C26.9766 5.07422 30.3047 4.88672 32.7539 5.15625C38.2031 5.76562 43.2422 8.13281 47.3086 11.9766C48.2109 12.832 48.9258 13.1719 49.6875 13.1016C51.0117 12.9727 51.9727 11.918 51.9727 10.6055C51.9609 9.70312 51.7969 9.39844 50.6602 8.29688C46.3242 4.05469 40.5938 1.26562 34.2188 0.292969C32.7891 0.0820312 28.7461 -0.0234375 27.3047 0.117188Z"
            fill="currentColor" />
        <path
            d="M21.4687 20.2382C20.9531 20.4843 20.4726 20.9765 20.2265 21.4804C19.9804 22.0077 19.9804 22.9921 20.2382 23.5312C20.3437 23.789 21.6914 25.2304 23.4257 26.9765L26.414 29.9999L23.4257 33.0116C21.5742 34.8866 20.3554 36.2108 20.2265 36.4921C19.9218 37.1483 20.0039 38.2382 20.414 38.8241C20.8945 39.539 21.5039 39.8905 22.3359 39.9374C22.8515 39.9726 23.1796 39.9257 23.5078 39.7733C23.789 39.6444 25.1132 38.4257 26.9882 36.5741L30 33.5858L33.0234 36.5741C34.8867 38.4257 36.2109 39.6444 36.4921 39.7733C36.8203 39.9257 37.1484 39.9726 37.664 39.9374C38.4961 39.8905 39.1054 39.539 39.5859 38.8241C39.9961 38.2382 40.0781 37.1483 39.7734 36.4921C39.6445 36.2108 38.4257 34.8866 36.5742 33.0116L33.5859 29.9999L36.5742 26.9765C38.4257 25.1132 39.6445 23.789 39.7734 23.5077C40.0781 22.8515 39.9961 21.7616 39.5859 21.1757C39.1054 20.4608 38.4961 20.1093 37.664 20.0624C37.1484 20.0272 36.8203 20.0741 36.4921 20.2265C36.2109 20.3554 34.8867 21.5741 33.0234 23.4257L30 26.414L26.9882 23.4257C25.2304 21.6913 23.789 20.3437 23.5312 20.2382C22.9921 19.9804 21.9726 19.9921 21.4687 20.2382Z"
            fill="currentColor" />
    </g>
</svg>